<?xml version="1.0" encoding="UTF-8"?><svg id="Camada_1" xmlns="http://www.w3.org/2000/svg" viewBox="0 0 295.7745 243.7967"><defs><style>.cls-1{fill:#e02319;}.cls-2{fill:#002b9c;}.cls-3{fill:#02329e;}.cls-4{fill:#af3e3e;}.cls-5,.cls-6{fill:#fff;}.cls-7{fill:#ffdf24;}.cls-8{fill:#e02518;}.cls-9{fill:#012c9f;}.cls-10{fill:#02319e;}.cls-11{fill:#0231a0;}.cls-12{fill:#fdce04;}.cls-13{fill:#e12418;}.cls-6{isolation:isolate;opacity:.46;}</style></defs><path class="cls-9" d="M217.8001,47.16c-5.36-15.99-3.26-19.42-2.01-21.48,1.37-2.25,3.64-3.77,6.22-4.17.44-.07.9-.1,1.35-.1,2.39,0,4.65.96,6.36,2.69,1.51,1.53,4.32,4.39,4.05,20.59l-15.97,2.47Z"/><path class="cls-9" d="M223.3501,29.6c2.46,0,2.21,14.96,2.21,14.96,0,0-4.88-14.55-2.31-14.95.04,0,.07-.01.1-.01M223.3501,13.21c-.87,0-1.74.07-2.59.2-4.98.77-9.34,3.69-11.97,8.01-3.29,5.4-4.23,12.03,1.24,28.34l31.93-4.94c.27-16.35-2.25-22.25-6.4-26.47-3.27-3.31-7.6-5.14-12.21-5.14h0Z"/><path class="cls-9" d="M209.3201,58.07c-12.63-11.16-12.54-15.19-12.48-17.6.06-2.64,1.26-5.09,3.3-6.72,1.56-1.25,3.52-1.94,5.53-1.94,3.83,0,7.96,1.23,16.24,16.14l-12.59,10.12Z"/><path class="cls-9" d="M205.6601,40c2.45,0,9.08,11.93,9.08,11.93,0,0-11.5-10.17-9.48-11.79.12-.09.26-.14.4-.14M205.6601,23.61c-3.87,0-7.65,1.33-10.66,3.75-3.92,3.15-6.24,7.86-6.36,12.92-.15,6.32,2.35,12.53,15.25,23.93l25.18-20.24c-.2-.36-2.02-3.62-4.26-7.02-3.07-4.66-8.78-13.34-19.15-13.34h0Z"/><path class="cls-9" d="M207.4301,71.75c-16.52-3.35-18.45-6.89-19.61-9-1.27-2.31-1.45-5.04-.51-7.47,1.36-3.51,4.66-5.69,8.6-5.69,1.36,0,5.51,0,17.35,7.1l-5.83,15.06Z"/><path class="cls-9" d="M195.9201,57.79c3.24,0,13.14,5.93,13.14,5.93,0,0-15.04-3.05-14.1-5.47.12-.32.46-.46.96-.46M195.9201,41.4c-7.29,0-13.67,4.29-16.24,10.92-1.82,4.69-1.47,9.93.95,14.37,3.03,5.55,8.3,9.67,25.17,13.1l11.69-30.12c-13.79-8.27-19.25-8.27-21.57-8.27h0Z"/><path class="cls-9" d="M196.9101,88.03c-6.04,0-9.34-3.86-9.93-7.69-.39-2.55.35-5.15,2.05-7.13,2.52-2.94,6.58-4.64,19.89-4.64.78,0,1.25.01,1.25.01l2.47,15.96c-2.45.83-10.79,3.49-15.73,3.49h0Z"/><path class="cls-9" d="M208.9201,76.77c.69,0,1.11.01,1.11.01,0,0-9.12,3.06-13.12,3.06-1.05,0-1.75-.21-1.83-.75-.34-2.14,10.32-2.32,13.84-2.32M208.9201,60.38c-12.47,0-20.73,1.23-26.11,7.5-3.26,3.8-4.69,8.8-3.93,13.71,1.09,7.05,7.2,14.63,18.03,14.63,5.8,0,13.97-2.45,18.33-3.91l-4.94-31.93c0,.01-.52,0-1.38,0h0Z"/><path class="cls-9" d="M206.1501,105.51c-2.72,0-5.25-1.2-6.94-3.3-1.63-2.03-2.28-4.68-1.77-7.27.46-2.36,1.24-6.31,15.97-14.5l10.12,12.59c-10.96,12.4-14.96,12.48-17.33,12.48h-.05Z"/><path class="cls-9" d="M217.4001,87.6h0M217.4001,87.6s-8.59,9.72-11.24,9.72c-.23,0-.42-.08-.55-.24-1.63-2.02,11.79-9.48,11.79-9.48M217.4001,71.21h0v11.97l-7.96-9.9c-15.05,8.36-18.82,13.88-20.03,20.09-.97,4.97.28,10.06,3.43,13.98,3.25,4.04,8.1,6.36,13.32,6.36,6.2,0,12.29-2.55,23.52-15.25l-12.28-15.27v-11.98h0ZM217.4001,103.99h0Z"/><path class="cls-9" d="M223.9301,115.63c-1.09,0-2.16-.2-3.18-.6-2.43-.94-4.32-2.92-5.17-5.41-.78-2.28-2.09-6.08,6.58-20.54l15.06,5.84c-2.66,13.12-5.69,20.71-13.29,20.71q.01,0,0,0Z"/><path class="cls-9" d="M229.1901,93.29h0M229.1901,93.29s-2.87,14.15-5.25,14.15c-.07,0-.15-.01-.22-.04-2.42-.95,5.47-14.11,5.47-14.11M229.1901,76.9h0v13.42l-14.06-5.45c-8.85,14.76-9.36,21.43-7.31,27.41,1.64,4.79,5.27,8.57,9.96,10.39,1.97.76,4.04,1.15,6.15,1.15,3.42,0,11.89-1.15,16.74-11.81.88-1.93,1.71-4.27,2.53-7.13,1.16-4.04,1.96-7.91,2.04-8.34l-16.06-6.23.01-13.41h0ZM229.1901,109.68h0Z"/><path class="cls-9" d="M244.4601,115.47c-2.39,0-4.65-.96-6.36-2.69-1.51-1.53-4.32-4.39-4.05-20.59l15.96-2.47c5.36,15.99,3.26,19.42,2.01,21.48-1.37,2.25-3.64,3.77-6.22,4.17-.44.07-.89.1-1.34.1h0Z"/><path class="cls-9" d="M242.2501,92.32s4.88,14.55,2.31,14.95c-.03.01-.06.01-.1.01-2.46,0-2.21-14.96-2.21-14.96M257.7801,87.11l-31.93,4.94c-.27,16.35,2.25,22.25,6.4,26.47,3.26,3.32,7.59,5.14,12.2,5.14.87,0,1.74-.07,2.59-.2,4.98-.77,9.34-3.69,11.97-8.01,3.3-5.39,4.24-12.02-1.23-28.34h0Z"/><path class="cls-9" d="M262.1501,105.07c-3.83,0-7.96-1.23-16.24-16.14l12.59-10.12c12.63,11.17,12.54,15.19,12.48,17.6-.06,2.64-1.26,5.09-3.3,6.72-1.56,1.25-3.53,1.94-5.53,1.94h0Z"/><path class="cls-9" d="M253.0701,84.95s11.5,10.17,9.48,11.79c-.12.09-.25.14-.4.14-2.46,0-9.08-11.93-9.08-11.93M263.9201,72.67l-25.18,20.24c.2.36,2.02,3.62,4.26,7.02,3.07,4.66,8.78,13.34,19.15,13.34,3.87,0,7.65-1.33,10.66-3.75,3.92-3.15,6.24-7.86,6.36-12.92.15-6.32-2.35-12.53-15.25-23.93h0Z"/><path class="cls-9" d="M271.8901,87.28c-1.36,0-5.51,0-17.35-7.1l5.84-15.06c16.52,3.35,18.45,6.89,19.61,9,1.27,2.32,1.45,5.04.51,7.47-1.37,3.52-4.66,5.69-8.61,5.69q.01,0,0,0Z"/><path class="cls-9" d="M258.7601,73.16s15.04,3.05,14.1,5.47c-.12.32-.47.46-.96.46-3.25,0-13.14-5.93-13.14-5.93M262.0201,57.1l-11.69,30.12c13.79,8.27,19.24,8.27,21.57,8.27,7.29,0,13.67-4.29,16.24-10.92,1.82-4.69,1.47-9.93-.95-14.37-3.04-5.55-8.31-9.68-25.17-13.1h0Z"/><path class="cls-9" d="M258.8901,68.3c-.78,0-1.24-.01-1.24-.01l-2.47-15.96c2.44-.82,10.78-3.48,15.72-3.48,6.04,0,9.34,3.86,9.93,7.69.39,2.55-.35,5.15-2.05,7.13-2.51,2.93-6.58,4.63-19.89,4.63h0Z"/><path class="cls-9" d="M270.9101,57.04c1.05,0,1.75.21,1.83.75.33,2.14-10.32,2.32-13.84,2.32-.69,0-1.11-.01-1.11-.01,0,0,9.12-3.06,13.12-3.06M270.9101,40.65c-5.8,0-13.97,2.45-18.33,3.91l4.94,31.93s.52.01,1.38.01c12.47,0,20.73-1.23,26.11-7.5,3.26-3.8,4.69-8.8,3.93-13.71-1.1-7.05-7.2-14.64-18.03-14.64h0Z"/><path class="cls-9" d="M244.2801,43.85c11.03-12.48,15.01-12.48,17.38-12.48,2.72,0,5.25,1.2,6.94,3.3,1.63,2.03,2.28,4.68,1.77,7.27-.46,2.36-1.24,6.31-15.97,14.5l-10.12-12.59Z"/><path class="cls-9" d="M261.6601,39.56c.23,0,.42.08.55.24,1.63,2.02-11.79,9.48-11.79,9.48,0,0,8.58-9.72,11.24-9.72M261.6601,23.17c-6.2,0-12.29,2.55-23.52,15.25l20.24,25.18c15.05-8.36,18.82-13.88,20.03-20.09.97-4.97-.28-10.06-3.43-13.98-3.25-4.04-8.11-6.36-13.32-6.36h0Z"/><path class="cls-9" d="M230.5901,41.96c2.66-13.12,5.69-20.71,13.28-20.71,1.09,0,2.17.2,3.19.6,2.43.94,4.32,2.92,5.17,5.41.78,2.28,2.09,6.08-6.58,20.54l-15.06-5.84Z"/><path class="cls-9" d="M243.8701,29.44c.07,0,.15.01.22.04,2.42.94-5.47,14.1-5.47,14.1,0,0,2.87-14.14,5.25-14.14M243.8701,13.06c-3.42,0-11.89,1.15-16.74,11.81-.88,1.93-1.71,4.27-2.53,7.13-1.16,4.04-1.96,7.91-2.04,8.34l30.12,11.69c8.85-14.76,9.36-21.43,7.31-27.41-1.64-4.79-5.27-8.57-9.96-10.39-1.97-.79-4.04-1.17-6.16-1.17h0Z"/><path class="cls-9" d="M225.1201,61.87c-4.33-44.25-.66-48.29,1.53-50.71,1.71-1.89,4.13-2.97,6.62-2.97s4.91,1.08,6.62,2.97c2.19,2.42,5.86,6.46,1.53,50.71h-16.3Z"/><path class="cls-9" d="M233.2701,16.38c4.37,0,0,44.69,0,44.69,0,0-4.37-44.69,0-44.69M233.2701,0c-4.81,0-9.43,2.06-12.69,5.66-5.28,5.82-6.41,13.46-5.23,35.5.58,10.87,1.57,21.08,1.62,21.51h32.62c.04-.43,1.04-10.64,1.62-21.51,1.17-22.05.05-29.68-5.23-35.5-3.28-3.6-7.9-5.66-12.71-5.66h0Z"/><path class="cls-9" d="M223.0101,67.14c-25.87-36.15-24.72-41.49-24.03-44.68.54-2.49,2.09-4.63,4.25-5.88,1.34-.77,2.87-1.18,4.42-1.18,5.74,0,9.62,3.6,19.96,23.86,4.98,9.75,9.33,19.33,9.52,19.73l-14.12,8.15Z"/><path class="cls-9" d="M207.6501,23.59c4.42,0,22.02,38.79,22.02,38.79,0,0-26.13-36.51-22.34-38.7.1-.06.21-.09.32-.09M207.6601,7.2h-.01c-2.99,0-5.93.79-8.51,2.28-4.16,2.4-7.14,6.5-8.16,11.25-1.66,7.68,1.18,14.86,13.22,33.36,5.94,9.12,11.9,17.47,12.16,17.82l28.25-16.31c-.19-.41-4.62-10.16-9.68-20.07-3.09-6.05-5.8-10.95-8.06-14.56-3.02-4.81-8.61-13.77-19.21-13.77h0Z"/><path class="cls-9" d="M223.8201,72.77c-40.48-18.37-42.15-23.57-43.15-26.68-.78-2.43-.51-5.06.74-7.22,1.62-2.8,4.6-4.47,7.99-4.47,3.15,0,7.73.98,25.66,12.69,8.74,5.71,16.59,11.32,16.92,11.56l-8.16,14.12Z"/><path class="cls-9" d="M189.4001,42.58c6.06,0,37.81,22.72,37.81,22.72,0,0-40.89-18.56-38.7-22.34.14-.26.45-.38.89-.38M189.4001,26.2h0c-6.35,0-11.99,3.2-15.08,8.57-2.4,4.16-2.93,9.2-1.45,13.82,2.4,7.49,8.45,12.28,28.13,22.28,9.7,4.93,19.05,9.18,19.44,9.36l16.31-28.25c-.34-.24-8.32-5.95-17.2-11.75-18.16-11.86-24.4-14.03-30.15-14.03h0Z"/><path class="cls-9" d="M193.4301,79.21c-4.02,0-7.12-.17-9.47-.51-9.31-1.37-10.31-7.19-10.31-9.63s1-8.26,10.31-9.63c2.35-.34,5.44-.51,9.47-.51,13.49,0,33.07,1.9,33.9,1.98v16.31c-.82.09-20.41,1.99-33.9,1.99Z"/><path class="cls-9" d="M193.4301,67.13c13.24,0,33.1,1.94,33.1,1.94,0,0-19.86,1.94-33.1,1.94-6.62,0-11.59-.49-11.59-1.94.01-1.45,4.97-1.94,11.59-1.94M193.4401,50.74h0c-4.43,0-7.91.2-10.66.6-2.56.38-4.73.97-6.66,1.82-6.58,2.9-10.66,9-10.66,15.92s4.08,13.02,10.66,15.92c1.92.85,4.1,1.44,6.66,1.82,2.75.4,6.23.6,10.66.6,13.88,0,33.86-1.94,34.7-2.02v-32.62c-.85-.1-20.82-2.04-34.7-2.04h0Z"/><path class="cls-9" d="M190.0301,103.59c-3.38,0-6.37-1.67-7.99-4.47-1.25-2.17-1.52-4.8-.74-7.22,1-3.11,2.67-8.31,43.15-26.68l8.16,14.12c-.33.24-8.18,5.85-16.92,11.56-17.93,11.71-22.51,12.69-25.66,12.69Z"/><path class="cls-9" d="M227.8401,72.67s-31.74,22.72-37.81,22.72c-.44,0-.74-.12-.89-.38-2.19-3.78,38.7-22.34,38.7-22.34M221.0701,57.75c-.39.18-9.74,4.42-19.44,9.36-19.68,10.01-25.73,14.79-28.13,22.28-1.48,4.62-.96,9.66,1.45,13.82,3.1,5.37,8.74,8.57,15.09,8.57,5.75,0,11.99-2.17,30.14-14.03,8.88-5.8,16.87-11.51,17.2-11.75l-16.31-28.25h0ZM227.8401,89.06h0Z"/><path class="cls-9" d="M208.7501,122.12c-1.55,0-3.08-.41-4.42-1.18-2.16-1.25-3.71-3.39-4.25-5.88-.69-3.19-1.85-8.53,24.03-44.68l14.12,8.15c-.18.4-4.54,9.98-9.52,19.73-10.34,20.25-14.22,23.86-19.96,23.86Z"/><path class="cls-9" d="M230.7701,75.14s-17.6,38.79-22.02,38.79c-.12,0-.23-.03-.33-.08-3.78-2.2,22.35-38.71,22.35-38.71M217.4401,65.6c-.25.35-6.22,8.7-12.16,17.82-12.04,18.5-14.88,25.68-13.22,33.36,1.03,4.75,4,8.85,8.16,11.25,2.58,1.49,5.53,2.28,8.52,2.28,10.6,0,16.2-8.96,19.2-13.77,2.26-3.61,4.97-8.51,8.06-14.56,5.07-9.92,9.5-19.66,9.68-20.07l-28.24-16.31h0ZM230.7701,91.53h0Z"/><path class="cls-9" d="M234.5401,128.69c-2.5,0-4.91-1.08-6.62-2.97-2.19-2.42-5.86-6.46-1.53-50.71h16.31c4.33,44.25.66,48.29-1.53,50.71-1.72,1.89-4.13,2.97-6.63,2.97Z"/><path class="cls-9" d="M234.5401,75.81s4.37,44.69,0,44.69c-4.38,0,0-44.69,0-44.69M250.8501,74.21h-32.62c-.04.43-1.04,10.64-1.62,21.51-1.17,22.05-.05,29.68,5.23,35.5,3.26,3.6,7.89,5.66,12.69,5.66,4.81,0,9.43-2.06,12.69-5.66,5.28-5.82,6.41-13.46,5.23-35.5-.5601-10.86-1.5601-21.08-1.6-21.51h0Z"/><path class="cls-9" d="M260.1601,121.48c-5.74,0-9.62-3.6-19.96-23.86-4.98-9.75-9.33-19.33-9.52-19.73l14.12-8.16c25.87,36.15,24.72,41.49,24.03,44.68-.54,2.49-2.09,4.63-4.25,5.88-1.34.79-2.87,1.19-4.42,1.19Z"/><path class="cls-9" d="M238.1401,74.5s26.13,36.51,22.34,38.7c-.1.06-.21.08-.33.08-4.41.01-22.01-38.78-22.01-38.78M251.4701,64.97l-28.25,16.31c.19.41,4.62,10.16,9.68,20.07,3.09,6.05,5.8,10.95,8.06,14.56,3,4.81,8.6,13.77,19.2,13.77,2.99,0,5.94-.79,8.52-2.28,4.16-2.4,7.14-6.5,8.16-11.25,1.66-7.68-1.18-14.86-13.22-33.36-5.93-9.12-11.9-17.47-12.15-17.82h0Z"/><path class="cls-9" d="M278.4101,102.49c-3.15,0-7.73-.98-25.66-12.69-8.74-5.71-16.59-11.32-16.92-11.56l8.15-14.13c40.49,18.37,42.15,23.57,43.15,26.68.78,2.43.51,5.06-.74,7.22-1.61,2.81-4.59,4.48-7.98,4.48Z"/><path class="cls-9" d="M240.6001,71.58s40.89,18.56,38.7,22.34c-.15.26-.45.38-.89.38-6.06,0-37.81-22.72-37.81-22.72M247.3801,56.65l-16.31,28.25c.34.24,8.32,5.95,17.21,11.75,18.15,11.86,24.39,14.03,30.14,14.03,6.35,0,11.99-3.2,15.08-8.57,2.4-4.16,2.93-9.2,1.45-13.82-2.4-7.49-8.45-12.28-28.13-22.28-9.71-4.93-19.05-9.18-19.44-9.36h0Z"/><path class="cls-9" d="M274.3801,77.95c-13.49,0-33.07-1.9-33.9-1.98v-16.32c.83-.08,20.41-1.98,33.9-1.98,4.02,0,7.12.17,9.47.51,9.31,1.37,10.31,7.19,10.31,9.63s-1,8.26-10.31,9.63c-2.36.34-5.45.51-9.47.51Z"/><path class="cls-9" d="M274.3801,65.86c6.62,0,11.59.49,11.59,1.94,0,1.46-4.97,1.94-11.59,1.94-13.24,0-33.1-1.94-33.1-1.94,0,0,19.86-1.94,33.1-1.94"/><path class="cls-9" d="M235.2001,57.54c.33-.24,8.18-5.85,16.92-11.56,17.93-11.71,22.51-12.69,25.66-12.69,3.38,0,6.37,1.67,7.99,4.47,1.25,2.16,1.52,4.8.74,7.22-1,3.11-2.67,8.31-43.15,26.68l-8.16-14.12Z"/><path class="cls-9" d="M277.7801,41.49c.44,0,.74.12.89.38,2.19,3.79-38.7,22.34-38.7,22.34,0,0,31.74-22.72,37.81-22.72M277.7801,25.1h0c-5.76,0-11.99,2.17-30.14,14.03-8.88,5.8-16.87,11.51-17.2,11.75l16.31,28.25c.39-.18,9.74-4.42,19.44-9.36,19.68-10.01,25.73-14.79,28.13-22.28,1.48-4.62.96-9.66-1.45-13.82-3.1-5.37-8.74-8.57-15.09-8.57h0Z"/><path class="cls-9" d="M229.5801,58.36c.18-.4,4.54-9.98,9.52-19.73,10.35-20.25,14.22-23.86,19.96-23.86,1.55,0,3.08.41,4.42,1.18,2.16,1.25,3.71,3.39,4.25,5.88.69,3.19,1.85,8.53-24.03,44.68l-14.12-8.15Z"/><path class="cls-9" d="M259.0601,22.96c.12,0,.23.03.33.08,3.79,2.19-22.34,38.7-22.34,38.7,0,0,17.59-38.78,22.01-38.78M259.0601,6.57h0c-10.61,0-16.2,8.96-19.2,13.77-2.26,3.61-4.97,8.51-8.06,14.56-5.07,9.92-9.5,19.66-9.68,20.07l28.25,16.31c.25-.35,6.22-8.7,12.16-17.82,12.04-18.5,14.88-25.68,13.22-33.36-1.03-4.75-4-8.85-8.16-11.25-2.59-1.49-5.54-2.28-8.53-2.28h0Z"/><path class="cls-2" d="M156.2501,194.41c-1.24,0-2.53-.36-3.84-1.07-1.8-.98-3.16-2.33-3.93-3.93-.44-.91-.72-1.93-.82-3.06-.33-3.6,1.17-7.41,4.23-10.73,1.82-1.98,3.94-3.57,6-5.11.7-.53,1.41-1.06,2.1-1.6,2.96-2.33,5.05-4.47,6.57-6.75.38-.57,1.17-1.75,2.51-1.75.53,0,1.03.19,1.42.54,1.12.13,2.03,1.03,2.27,2.27.27,1.38-.24,2.64-.52,3.32-.64,1.57-1.37,3.11-2.07,4.6-1.03,2.18-2,4.24-2.73,6.4-.4,1.18-.72,2.39-1.07,3.67-.99,3.64-2.01,7.41-4.68,10.41-1.35,1.52-2.84,2.42-4.43,2.69-.3401.08-.6801.1-1.01.1h0ZM163.5001,172.89c-.46.32-.92.63-1.37.94-.81.55-1.62,1.1-2.41,1.68-1.7,1.24-4.11,3.19-5.3,5.73-.41.88-.72,1.91-.96,3.17-.15.8-.27,1.7-.03,2.37.23.64.9,1.16,1.62,1.26.1.01.2.02.3.02.67,0,1.39-.32,1.88-.82.55-.57.95-1.48,1.3-2.28,1.73-3.97,3.4-8,4.97-12.07Z"/><path class="cls-2" d="M169.0601,162.43c.27,0,.24.66.07,1.36-.33.49-.55,1.08-.75,1.64-.04.11-.07.21-.11.32-.68,1.1-1.59,2.06-2.54,2.91-2.21,1.97-4.79,3.48-7.19,5.23s-4.67,3.81-5.93,6.5c-.54,1.16-.88,2.4-1.12,3.65-.21,1.13-.34,2.33.05,3.41.49,1.35,1.79,2.35,3.21,2.56.19.03.39.04.58.04,1.24,0,2.47-.54,3.33-1.44.77-.8,1.23-1.84,1.68-2.85,2.89-6.56,5.53-13.24,7.92-20,.2-.32.38-.64.53-.98.13-.28.25-.64.33-.98.2-.28.43-.53.73-.72.09-.06.18-.11.29-.12h.05c.31,0,.53.35.6.67.14.74-.13,1.48-.41,2.18-1.53,3.75-3.56,7.29-4.85,11.12-1.55,4.59-2.12,9.77-5.35,13.39-.87.98-1.97,1.83-3.26,2.05-.22.04-.45.05-.67.05-1,0-2-.35-2.88-.83-1.29-.7-2.45-1.72-3.09-3.04-.36-.74-.55-1.55-.62-2.36-.31-3.39,1.4-6.69,3.71-9.19,2.3-2.5,5.18-4.39,7.86-6.49,2.63-2.07,5.12-4.41,6.99-7.2.4001-.64.6701-.88.8401-.88M169.0601,158.43c-2.41,0-3.69,1.91-4.17,2.63-1.4,2.09-3.36,4.09-6.15,6.29-.68.53-1.37,1.05-2.06,1.57-2.12,1.59-4.32,3.24-6.27,5.36-3.44,3.74-5.13,8.09-4.75,12.26.12,1.37.46,2.63,1.01,3.75.96,1.97,2.61,3.63,4.77,4.81,1.61.87,3.22,1.31,4.79,1.31.45,0,.9-.04,1.33-.11,2.05-.34,3.93-1.46,5.59-3.33,2.99-3.35,4.12-7.53,5.12-11.22.34-1.25.66-2.44,1.04-3.56.69-2.05,1.64-4.06,2.65-6.19.72-1.51,1.46-3.08,2.12-4.7.33-.81,1.02-2.49.63-4.46-.37-1.9-1.7-3.32-3.4-3.76-.66-.41-1.44-.65-2.25-.65h0ZM155.2901,186.04c-.02-.13-.02-.47.13-1.26.2-1.09.47-1.97.81-2.69.55-1.17,1.47-2.31,2.85-3.52-.78,1.87-1.57,3.73-2.38,5.58-.27.62-.61,1.39-.91,1.7-.12.13-.32.21-.43.21-.04-.01-.05-.01-.07-.02h0Z"/><path class="cls-1" d="M225.9801,45.35s.25-15.08-2.27-14.69c-2.52.39,2.27,14.69,2.27,14.69Z"/><path class="cls-12" d="M215.3501,52.59s-7.33-13.18-9.31-11.59c-1.99,1.6,9.31,11.59,9.31,11.59Z"/><path class="cls-13" d="M209.7601,64.18s-12.94-7.76-13.86-5.38c-.92,2.38,13.86,5.38,13.86,5.38Z"/><path class="cls-12" d="M210.7101,77.01s-15.08-.25-14.69,2.27c.39,2.52,14.69-2.27,14.69-2.27Z"/><path class="cls-13" d="M217.9501,87.64s-13.18,7.32-11.59,9.31c1.6,1.99,11.59-9.31,11.59-9.31Z"/><path class="cls-12" d="M229.5401,93.23s-7.76,12.94-5.38,13.86,5.38-13.86,5.38-13.86Z"/><path class="cls-12" d="M242.3701,92.28s-.25,15.08,2.27,14.69c2.52-.39-2.27-14.69-2.27-14.69Z"/><path class="cls-13" d="M253.0001,85.04s7.32,13.18,9.31,11.59c1.99-1.6-9.31-11.59-9.31-11.59Z"/><path class="cls-12" d="M257.6401,60.62s15.08.25,14.69-2.27c-.39-2.52-14.69,2.27-14.69,2.27Z"/><path class="cls-13" d="M250.4001,49.98s13.18-7.32,11.59-9.31c-1.6-1.99-11.59,9.31-11.59,9.31Z"/><path class="cls-12" d="M238.8101,44.4s7.76-12.94,5.38-13.86c-2.38-.92-5.38,13.86-5.38,13.86Z"/><path class="cls-12" d="M233.5501,61.57s-4.3-43.91,0-43.91c4.3,0,0,43.91,0,43.91Z"/><path class="cls-12" d="M230.0201,62.85s-25.68-35.88-21.96-38.03c3.72-2.14,21.96,38.03,21.96,38.03Z"/><path class="cls-12" d="M227.5901,65.73s-40.18-18.23-38.03-21.96c2.15-3.72,38.03,21.96,38.03,21.96Z"/><path class="cls-12" d="M226.9301,69.44s-43.91,4.3-43.91,0,43.91,0,43.91,0Z"/><path class="cls-12" d="M228.2201,72.97s-35.88,25.68-38.03,21.96,38.03-21.96,38.03-21.96Z"/><path class="cls-12" d="M231.0901,75.39s-18.23,40.18-21.96,38.03c-3.71-2.15,21.96-38.03,21.96-38.03Z"/><path class="cls-12" d="M234.8001,76.05s4.3,43.91,0,43.91,0-43.91,0-43.91Z"/><path class="cls-12" d="M238.3301,74.77s25.68,35.88,21.96,38.03c-3.72,2.15-21.96-38.03-21.96-38.03Z"/><path class="cls-12" d="M240.7601,71.9s40.18,18.23,38.03,21.96c-2.15,3.71-38.03-21.96-38.03-21.96Z"/><path class="cls-12" d="M241.4201,68.19s43.91-4.3,43.91,0-43.91,0-43.91,0Z"/><path class="cls-12" d="M240.1301,64.65s35.88-25.68,38.03-21.96c2.15,3.73-38.03,21.96-38.03,21.96Z"/><path class="cls-12" d="M237.2601,62.23s18.23-40.18,21.96-38.03c3.71,2.15-21.96,38.03-21.96,38.03Z"/><path class="cls-12" d="M244.0901,61.39c-2.2-2.2-5.01-3.53-8.04-3.82-1.26-.41-2.6-.63-3.99-.63-7.19,0-13.04,5.85-13.04,13.04s5.85,13.04,13.04,13.04c.07,0,.15,0,.22-.01.63.12,1.27.18,1.91.18,1.1,0,2.22-.17,3.31-.52,6.56-2.06,10.34-6.51,10.36-12.21.02-3.4-1.32-6.62-3.77-9.07Z"/><path class="cls-5" d="M241.4601,67.04c-.96,1.03-1.77,2.15-2.4,3.36-.66,1.23-1,2.55-1.58,3.84-.91,2.2-2.75,3.38-5.04,3.81-.7.14-1.39.22-2.1.27,1.94-.67,4-1.19,5.34-2.76.87-1.03,1.28-2.35,1.8-3.6.81-1.97,2.19-3.79,3.98-4.92h0Z"/><path class="cls-5" d="M234.8701,63.41c-.84-.05-1.49.75-2.11,1.28l-.75.69-2.99,2.76c-1.72,1.64-4.34,3.82-5.78,5.69.75-1.13,1.65-2.16,2.57-3.16,1.38-1.49,4.14-4.48,5.52-5.97,1.03-1.02,1.95-2.56,3.61-2.57,0-.01-.07,1.28-.07,1.28h0Z"/><path class="cls-5" d="M230.6701,61.23c-.95,1.85-3.01,3.61-5,4.24.6-2.13,2.81-4,5-4.24h0Z"/><path class="cls-10" d="M226.7401,68l-1.15.03,1.31.43c-.04.09-.15.15-.3.13-.19.4-.41.81-.65,1.21l.46.08c-.02.11-.11.2-.3.22l.1,4.52-1.45.03-.07-3.11c-.26.29-.52.56-.77.8-.25-.28-.78-.78-1.1-1,.97-.77,1.92-2.15,2.43-3.43l.03.01-.01-.54-2.14.05-.03-1.41,2.14-.05-.02-.96,1.77.05c-.01.11-.1.18-.3.23l.01.64,1.9-.04-.02-.96,1.78.05c-.01.12-.09.18-.3.23l.01.64,2.12-.05.03,1.41-2.12.05.01.65-1.47.03-.01-.65-1.9.04.0099.67ZM229.2701,72.58c.01.47.06.52.47.51l1.05-.02c.39-.01.45-.24.49-1.47.32.24.95.47,1.34.55-.12,1.72-.5,2.26-1.66,2.28l-1.39.03c-1.36.03-1.73-.4-1.76-1.84l-.1-4.47,1.77.05c-.01.11-.1.19-.3.23l.04,1.58c.71-.37,1.39-.82,1.89-1.22l1.19,1.14c-.04.05-.16.08-.28.07-.74.46-1.78.96-2.77,1.37l.02,1.21Z"/><path class="cls-10" d="M237.7201,64.88l1.16.03c-.02.14-.15.26-.34.31l.06,2.75c.04,1.76,1.18,3.84,4.17,4.9-.34.33-.79.98-1.01,1.41-2.17-.88-3.58-2.71-3.92-3.73-.29,1.07-1.48,2.92-3.59,3.9-.2-.33-.74-.96-1.07-1.25,2.85-1.16,3.85-3.47,3.81-5.19l-.07-3.18.8.05ZM233.3001,69.61c.69-.65.99-1.62,1.1-2.79l1.51.29c-.14,1.31-.39,2.52-1.23,3.29l-1.38-.79ZM239.3101,69.48c.46-.76.97-1.9,1.25-2.82l1.81.74c-.06.09-.19.14-.35.13-.34.81-.95,1.86-1.42,2.54l-1.29-.59Z"/><path class="cls-11" d="M244.3101,61.47c-2.2-2.2-5.01-3.53-8.04-3.82-1.26-.41-2.6-.63-3.99-.63-7.19,0-13.04,5.85-13.04,13.04s5.85,13.04,13.04,13.04c.07,0,.15,0,.22-.01.63.12,1.27.18,1.91.18,1.1,0,2.22-.17,3.31-.52,6.56-2.06,10.34-6.51,10.36-12.21.01-3.39-1.33-6.61-3.77-9.07ZM244.3301,75.01l1.73.16c-.54.99-1.24,1.9-2.06,2.71l-1.36.05c.69-.88,1.26-1.87,1.69-2.92ZM243.7401,61.96l-.89.49c-.93-1.29-2.09-2.4-3.41-3.27,1.63.61,3.1,1.57,4.3,2.78ZM244.2001,62.45c.78.87,1.43,1.86,1.94,2.93l-1.65.11c-.33-.88-.76-1.72-1.27-2.51l.98-.53ZM246.4101,66.01c.49,1.22.78,2.53.85,3.9l-1.95.04c-.01-1.33-.22-2.62-.61-3.83l1.71-.11ZM245.3001,70.6l1.97-.04c-.01,1.43-.33,2.77-.89,4l-1.8-.17c.41-1.2.67-2.47.72-3.79ZM242.1101,78.61l1.17-.04c-1.12.96-2.41,1.75-3.78,2.34.97-.65,1.84-1.43,2.61-2.3ZM220.3201,70.06c0-6.59,5.36-11.96,11.96-11.96,6.59,0,11.96,5.36,11.96,11.96,0,1.49-.27,2.91-.77,4.22l-.13-.01-.04.46c-1.82,4.28-6.07,7.29-11.01,7.29-6.61,0-11.97-5.37-11.97-11.96Z"/><path class="cls-9" d="M17.3001,190.63c-.9-1.19-1.31-1.99-1.94-2.51-4.74-3.9-4.26-8.4-1.69-13.22,3.99-7.48,7.95-14.97,12.12-22.84-4.06-3.46-4.15-8.49-2.41-13.9,2.64-8.2,5.62-16.32,7.74-24.65,1.32-5.17,1.14-10.7,1.98-16.02.59-3.69,1.01-7.73,2.83-10.85,3.92-6.71,10.79-7.34,16.6-2.16,1.09.97,1.99,2.16,3.02,3.29,7.39-2.92,14.69-6.12,22.21-8.7,7.66-2.64,15.53-4.62,23.27-7.04,1.31-.41,2.67-1.32,3.54-2.38,2.26-2.76,4.13-5.84,6.42-8.57,1.63-1.95,3.42-4.06,5.6-5.2,6.51-3.37,12.38-.25,13.8,6.98.31,1.57.04,3.42.78,4.7,1.22,2.1,2.84,5.21,4.68,5.5,6.04.96,9.91,4.9,13.85,8.68,7.78,7.44,12.24,16.63,12.64,27.5.08,2.32.77,3.74,2.63,5.19,15.89,12.41,24.67,29.2,28.87,48.51,1.98,9.11.1,17.62-6.28,24.86-.65.74-.65,2.19-.69,3.31-.25,7.13.02,14.31-.73,21.38-.95,9.06-6.58,14.6-15.39,16.74-1.4.34-3,1.51-3.72,2.75-2.96,5.07-7.6,7.72-12.94,9.15-12.61,3.36-25.39,3.58-38.04.46-3.55-.88-6.67-3.45-10.05-5.12-1.23-.61-2.63-1.25-3.94-1.25-10.23.03-20.47.5-30.69.23-5.61-.15-11.19-1.52-16.79-2.22-1.53-.19-3.16-.21-4.66.09-12.36,2.47-24.49,3.08-35.84-3.81-5.16-3.13-9.41-7.12-12.25-12.52-2.42-4.61-2.45-9.22-.03-13.8,3.29-6.22,7.55-11.31,15.5-12.56Z"/><path class="cls-3" d="M65.7901,161.49c2.92-.14,4.9-.14,6.85-.35,2.2-.24,4.39-.62,6.57-1.03,18.85-3.58,35.21-12.61,50.21-24.03,7.59-5.77,14.38-12.68,21.01-19.59,5.65-5.89,6.52-13.02,2.86-20.53-3.95-8.1-9.69-14.64-17.72-18.69-2.49-1.25-5.91-1.23-8.82-.93-4.01.41-7.91,1.78-11.91,2.43-1.27.21-2.96-.2-4.02-.95-3.26-2.3-6.72-2.75-10.54-2.1-17.04,2.9-32.27,10.27-47.04,18.86-8.63,5.02-14.92,12.12-19.02,21.04-2.3,5-3.72,10.41-5.53,15.64-.64,1.85-1.12,3.78-1.94,5.55-2.69,5.81-1.37,11.14,4.15,14.31,11.07,6.37,23.06,9.76,34.89,10.37Z"/><path class="cls-3" d="M30.0401,190.04c9.5,2.22,16.35,7.09,20.73,15.41,3.16,6,4.21,12.39,3.89,18.95-.2,4.02,1.39,5.6,5.01,5.97.98.1,1.95.45,2.92.44,12.92-.18,25.84-.41,38.76-.65.19,0,.37-.27.68-.51.44-23.41,8.89-40.04,36.01-40.2-1.41-4.19-2.8-7.62-3.7-11.18-.89-3.51-2.73-4.59-6.1-3.51-11.46,3.69-23.13,6.85-34.36,11.15-13.14,5.03-26.19,6.83-39.65,2.07-6-2.12-11.83-4.74-18.06-7.26-1.79,2.7-3.8,5.77-6.13,9.32Z"/><path class="cls-3" d="M138.3201,237.12c2.41-.73,6.8-1.56,10.77-3.35,6.01-2.72,7.03-8.3,2.21-12.79-3.07-2.86-6.9-5.24-10.8-6.79-6.12-2.44-15.07.79-18.93,6.02-2.46,3.33-2.51,6.75.19,9.79,3.84,4.32,8.7,6.73,16.56,7.12Z"/><path class="cls-3" d="M27.4601,209.54c-.16.22-.32.45-.48.67-2.63.54-5.39.77-7.87,1.7-5.5,2.07-6.31,8.47-1.71,12.09,4.79,3.77,15.91,4.65,21.19,1.69,4.83-2.71,5.68-8.01,1.13-11.04-3.61-2.42-8.14-3.46-12.26-5.11Z"/><path class="cls-3" d="M167.2701,197.36c2,7.67,3.86,14.79,5.65,21.65,5.7-5.12,8.24-17.14,4.75-24.77-3.7,1.11-7.44,2.23-10.4,3.12Z"/><path class="cls-3" d="M147.9501,202.7c-.08-3.25-3.07-6.14-6.2-5.98-2.97.15-5.41,2.85-5.37,5.92.05,3.33,2.93,6.08,6.2,5.91,3.09-.16,5.44-2.72,5.37-5.85Z"/><path class="cls-3" d="M128.6601,206.41c.02-3.31-2.47-5.94-5.72-6.03-3-.09-5.59,2.47-5.68,5.6-.1,3.38,2.71,6.33,5.94,6.26,3.1-.06,5.44-2.57,5.46-5.83Z"/><path class="cls-3" d="M27.8901,206.34c2.99.07,5.75-2.35,5.79-5.08.04-2.79-2.51-5.17-5.62-5.24-2.99-.07-5.72,2.3-5.81,5.06-.09,2.64,2.64,5.19,5.64,5.26Z"/><path class="cls-3" d="M162.2801,211.25c.04-2.78-2.29-5.37-4.95-5.51-2.76-.14-5.12,2.25-5.09,5.16.03,2.95,2.21,5.19,5.09,5.22,2.72.04,4.91-2.12,4.95-4.87Z"/><path class="cls-3" d="M8.3401,203.73c2.56,1.91,3.94,3.73,5.56,3.96,2.56.38,3.99-1.65,3.96-4.17-.04-2.43-1.62-4.19-3.96-3.73-1.65.31-3.01,2.04-5.56,3.94Z"/><path class="cls-5" d="M65.7901,161.49c-11.83-.61-23.82-4-34.89-10.37-5.52-3.18-6.84-8.5-4.15-14.31.82-1.77,1.3-3.7,1.94-5.55,1.81-5.23,3.23-10.63,5.53-15.64,4.1-8.92,10.39-16.02,19.02-21.04,14.77-8.59,30-15.96,47.04-18.86,3.81-.65,7.28-.2,10.54,2.1,1.06.75,2.75,1.16,4.02.95,4-.65,7.9-2.02,11.91-2.43,2.91-.3,6.33-.32,8.82.93,8.03,4.05,13.77,10.59,17.72,18.69,3.66,7.51,2.79,14.64-2.86,20.53-6.62,6.9-13.42,13.82-21.01,19.59-15,11.41-31.36,20.45-50.21,24.03-2.18.41-4.37.79-6.57,1.03-1.95.21-3.93.21-6.85.35ZM75.5301,141.7c1.01-.58,1.64-.92,2.24-1.3,10.8-6.88,21.47-13.96,32.42-20.58,7.59-4.58,12.86-11.19,18.45-18.4-8.35-.97-15.33.9-20.97,6.23-9.94,9.39-19.59,19.09-29.38,28.64-.33.32-.74.55-1.09.81-.85-.76-1.57-1.41-2.84-2.55.46,2.79.79,4.8,1.17,7.15ZM33.0901,138.24c3.39,2.08,6.5,5.46,9.83,5.71,7.22.53,14.57-.54,21.81-.95v-3.01c-2.81-.41-5.13-.5-7.31-1.12-3.77-1.07-7.49-2.37-11.16-3.75-4.93-1.85-9.09-.74-13.17,3.12ZM76.2101,145.53c-4.15.69-7.54,1.26-11.6,1.94,2.3,2.45,4.11,4.38,6.27,6.69,1.78-2.88,3.36-5.43,5.33-8.63Z"/><path class="cls-5" d="M30.0401,190.04c2.33-3.55,4.35-6.62,6.12-9.32,6.23,2.52,12.06,5.13,18.06,7.26,13.46,4.75,26.51,2.96,39.65-2.07,11.23-4.3,22.89-7.46,34.36-11.15,3.37-1.08,5.21-.01,6.1,3.51.9,3.56,2.29,6.99,3.7,11.18-27.12.16-35.58,16.79-36.01,40.2-.31.24-.49.51-.68.51-12.92.24-25.84.46-38.76.65-.97.01-1.94-.34-2.92-.44-3.62-.37-5.21-1.95-5.01-5.97.33-6.56-.72-12.95-3.89-18.95-4.38-8.32-11.22-13.2-20.72-15.41Z"/><path class="cls-5" d="M142.7401,235.95c-4.42,1.2-9.13,1.1-13.39-.57-3.06-1.2-5.48-3-7.6-5.38-2.7-3.04-2.65-6.46-.19-9.79,3.86-5.23,12.81-8.46,18.93-6.02,3.9,1.55,7.73,3.93,10.8,6.79,4.71,4.39,3.82,10.01-2.03,12.71-2.16.99-4.47,1.7-6.52,2.26Z"/><path class="cls-5" d="M27.2701,210.14c.72.09,1.42.29,2.11.53,3.63,1.25,7.15,1.84,10.35,3.97,4.55,3.04,3.69,8.33-1.13,11.04-5.28,2.96-16.4,2.08-21.19-1.69-4.61-3.62-3.8-10.03,1.71-12.09,2.47-.93,8.02-1.78,8.15-1.76Z"/><path class="cls-5" d="M167.2701,197.36c2.96-.89,6.7-2,10.4-3.11,3.49,7.62.95,19.65-4.75,24.77-1.78-6.87-3.64-13.99-5.65-21.66Z"/><path class="cls-5" d="M147.9501,202.7c.07,3.13-2.28,5.69-5.37,5.85-3.27.16-6.15-2.58-6.2-5.91-.05-3.07,2.4-5.76,5.37-5.92,3.13-.16,6.12,2.73,6.2,5.98Z"/><path class="cls-5" d="M128.6601,206.41c-.02,3.25-2.37,5.76-5.46,5.83-3.23.07-6.03-2.88-5.94-6.26.09-3.13,2.68-5.69,5.68-5.6,3.26.1,5.74,2.72,5.72,6.03Z"/><path class="cls-5" d="M27.8901,206.34c-3-.07-5.73-2.62-5.64-5.27.09-2.76,2.82-5.13,5.81-5.06,3.11.08,5.66,2.45,5.62,5.24-.04,2.74-2.8,5.16-5.79,5.09Z"/><path class="cls-5" d="M162.2801,211.25c-.04,2.76-2.23,4.91-4.96,4.87-2.88-.04-5.06-2.28-5.09-5.22-.03-2.9,2.33-5.29,5.09-5.16,2.67.13,5.01,2.73,4.96,5.51Z"/><path class="cls-9" d="M75.5301,141.7c-.38-2.35-.71-4.36-1.16-7.15,1.27,1.14,2,1.79,2.84,2.55.35-.26.76-.49,1.09-.81,9.78-9.56,19.44-19.25,29.38-28.64,5.64-5.33,12.61-7.2,20.97-6.23-5.59,7.21-10.86,13.82-18.45,18.4-10.95,6.62-21.63,13.7-32.42,20.58-.61.38-1.24.72-2.25,1.3Z"/><path class="cls-9" d="M33.0901,138.24c4.08-3.86,8.24-4.97,13.16-3.12,3.67,1.38,7.39,2.68,11.16,3.75,2.18.62,4.5.71,7.31,1.12v3.01c-7.24.41-14.58,1.49-21.81.95-3.32-.25-6.43-3.63-9.82-5.71Z"/><path class="cls-9" d="M76.2101,145.53c-1.97,3.2-3.55,5.75-5.33,8.63-2.16-2.31-3.97-4.24-6.27-6.69,4.06-.68,7.45-1.25,11.6-1.94Z"/><path class="cls-5" d="M91.0401,223.91c-.82-1.21-1.65-2.41-2.47-3.62.82-.51,1.63-1.02,2.45-1.53.66,1.37,1.31,2.74,1.97,4.1-.65.35-1.3.7-1.95,1.05Z"/><ellipse class="cls-5" cx="14.3001" cy="203.76" rx="5.04" ry="4.05"/><circle class="cls-5" cx="5.7801" cy="207.81" r="1.41"/><path class="cls-5" d="M152.4001,167.21c-6.19,2.61-11.19,7.93-13.41,14.28"/><path class="cls-5" d="M161.2701,170.21c-2.67,2.1-5.55,3.99-7.86,6.49-2.3,2.5-4.02,5.8-3.71,9.19.07.82.27,1.63.62,2.36.64,1.32,1.8,2.34,3.09,3.04,1.09.59,2.34.98,3.56.77,1.29-.22,2.39-1.07,3.26-2.05,3.23-3.62,3.8-8.79,5.35-13.39,1.29-3.83,3.32-7.38,4.85-11.12.28-.69.55-1.44.41-2.18-.07-.33-.3-.7-.64-.67-.1.01-.2.06-.29.12-.8.51-1.16,1.47-1.48,2.36-2.42,6.87-5.09,13.65-8.03,20.32-.45,1.02-.91,2.05-1.68,2.85-.99,1.04-2.49,1.61-3.91,1.4-1.42-.2-2.73-1.21-3.21-2.56-.39-1.08-.27-2.28-.05-3.41.24-1.25.57-2.5,1.12-3.65,1.26-2.68,3.54-4.75,5.93-6.5,2.4-1.75,4.97-3.26,7.19-5.23,1.24-1.1,2.38-2.38,3.08-3.89.56-1.2.85-3.64-.59-1.48-1.89,2.83-4.38,5.16-7.01,7.23Z"/><path class="cls-8" d="M178.9201,169.24s-2.17,3.64-12.33-2.41c-10.54-6.28-7.99-9.69-7.99-9.69l26.67-44.79,20.32,12.1-26.67,44.79Z"/><path class="cls-4" d="M205.5301,124.54c-.75,1.26-5.91-.43-11.52-3.77-5.61-3.34-9.55-7.07-8.8-8.33s5.91.43,11.52,3.77c5.62,3.33,9.56,7.06,8.8,8.33Z"/><polygon class="cls-7" points="167.4701 153.52 170.2901 153.67 168.4601 155.82 169.1901 158.55 166.5801 157.47 164.2001 159.01 164.4301 156.19 162.2301 154.41 164.9801 153.75 165.9901 151.11 167.4701 153.52"/><polygon class="cls-7" points="199.6401 134.44 202.4801 129.66 201.8701 129.63 200.3901 127.22 199.3801 129.86 196.6301 130.52 198.8201 132.3 198.6001 135.11 199.6401 134.44"/><polygon class="cls-7" points="182.9301 116.28 180.6201 120.16 183.2201 121.24 182.4901 118.51 184.3201 116.36 182.9301 116.28"/><path class="cls-7" d="M178.9101,169.25l1.06-1.77-1.52-.08-1.48-2.41-1.01,2.64-2.75.66,2.2,1.78-.02.24c2.75.23,3.52-1.06,3.52-1.06Z"/><path class="cls-6" d="M183.4701,119.78c-3.32,2.96-3.75,7.93-5.74,11.91-2.08,4.16-5.92,7.3-7.72,11.59-.29.7-.52,1.54-.11,2.18.44.7,1.47.81,2.22.45.75-.35,1.27-1.05,1.74-1.72,3.09-4.44,5.41-9.39,8.63-13.73,1.2-1.61,2.53-3.15,3.48-4.91.74-1.37,1.73-3.76,1.15-5.36-.62-1.7-2.49-1.44-3.65-.41Z"/><path class="cls-6" d="M168.7401,148.45c-.42-.49-1.13-.73-1.76-.6-.64.13-1.19.63-1.38,1.25-.11.36-.11.75-.06,1.12.09.67.37,1.33.88,1.77.91.79,2.5.57,3.16-.44.66-1.01.24-2.55-.85-3.08l.01-.02Z"/><path class="cls-7" d="M175.9901,146.58l-.83.94,1.32-.73c.05.1.01.23-.12.34.18.45.35.93.49,1.43l.41-.31c.08.1.08.23-.05.4l3.71,3.29-1.06,1.19-2.55-2.26c.04.42.07.83.07,1.22-.41-.01-1.2.05-1.62.14.1-1.35-.29-3.14-.94-4.51l.03-.02-.44-.39-1.56,1.76-1.16-1.03,1.56-1.76-.78-.69,1.36-1.38c.08.09.08.22-.04.41l.52.47,1.38-1.56-.78-.69,1.37-1.39c.09.1.08.21-.04.41l.52.47,1.54-1.74,1.16,1.03-1.54,1.74.53.47-1.07,1.21-.53-.47-1.38,1.56.52.45ZM181.5501,147.96c.38.34.46.33.76,0l.76-.86c.28-.32.14-.54-.82-1.49.43-.08,1.08-.41,1.44-.67,1.29,1.38,1.44,2.08.6,3.03l-1.01,1.14c-.99,1.12-1.61,1.09-2.79.04l-3.66-3.25,1.36-1.38c.08.09.08.22-.04.41l1.3,1.15c.23-.85.38-1.73.43-2.43l1.81-.11c.01.07-.05.19-.16.28-.18.94-.55,2.15-.96,3.25l.98.89Z"/><path class="cls-7" d="M181.6601,135.44l.89-.91c.1.12.1.31,0,.5l2.26,2c1.44,1.28,3.96,1.91,7.04.29.02.52.2,1.37.39,1.86-2.32,1.09-4.84.85-5.92.37.65,1.03,1.24,3.36.46,5.79-.42-.09-1.32-.12-1.8-.07,1.19-3.15.08-5.67-1.33-6.92l-2.61-2.31.6199-.6ZM182.1601,142.5c-.01-1.03-.56-2-1.42-2.96l1.36-1c.95,1.09,1.73,2.19,1.73,3.44l-1.67.52ZM186.5401,137.59c-.27-.94-.8-2.2-1.34-3.1l1.94-.9c.03.12-.03.25-.16.38.4.87.78,2.15.99,3.03l-1.43.59Z"/></svg>