<?xml version="1.0" encoding="utf-8"?>
<!-- Generator: Adobe Illustrator 27.9.0, SVG Export Plug-In . SVG Version: 6.00 Build 0)  -->
<svg version="1.1" id="Camada_1" xmlns="http://www.w3.org/2000/svg" xmlns:xlink="http://www.w3.org/1999/xlink" x="0px" y="0px"
	 viewBox="0 0 415.38 371.17" style="enable-background:new 0 0 415.38 371.17;" xml:space="preserve">
<style type="text/css">
	.st0{fill:#E0261A;}
	.st1{fill:#58FEDB;}
	.st2{fill:#060612;}
	.st3{fill:#003838;}
	.st4{fill:#012C9F;}
	.st5{opacity:0.25;}
	
		.st6{clip-path:url(#SVGID_00000183955756605981330350000009260674880669789631_);fill:#FFFFFF;stroke:#DFC298;stroke-width:0.75;stroke-miterlimit:10;}
	.st7{clip-path:url(#SVGID_00000183955756605981330350000009260674880669789631_);}
	.st8{fill:#FFFFFF;stroke:#DFC298;stroke-width:0.75;stroke-miterlimit:10;}
	.st9{fill:none;stroke:#DFC298;stroke-linecap:round;stroke-linejoin:round;stroke-miterlimit:10;}
	.st10{clip-path:url(#SVGID_00000183955756605981330350000009260674880669789631_);fill:none;}
	.st11{fill:#DFC298;}
	.st12{fill:#02329E;stroke:#E12418;stroke-width:33;stroke-linecap:square;stroke-linejoin:bevel;stroke-miterlimit:10;}
	.st13{fill:#FFFFFF;}
	.st14{fill:#01319E;}
	.st15{fill:#02329E;}
	.st16{fill:#FDCE04;}
	.st17{fill:#01319E;stroke:#02329E;stroke-width:21;stroke-linecap:square;stroke-linejoin:bevel;stroke-miterlimit:10;}
	.st18{fill:#02319F;}
	.st19{fill:none;stroke:#000000;stroke-width:5;stroke-miterlimit:10;}
	.st20{stroke:#000000;stroke-width:0.75;stroke-miterlimit:10;}
	.st21{fill:none;stroke:#000000;stroke-width:3;stroke-miterlimit:10;}
	.st22{fill:#0231A0;}
	.st23{fill:#E02319;}
	.st24{fill:#E12418;}
	.st25{fill:#02319E;}
	.st26{fill:#02329E;stroke:#E12418;stroke-width:20;stroke-linecap:square;stroke-linejoin:bevel;stroke-miterlimit:10;}
	.st27{fill:#E12318;}
	.st28{fill:#FFE900;}
	.st29{fill:#FCCD07;}
	.st30{opacity:0.4;clip-path:url(#SVGID_00000158747492580251084970000012983901126856807589_);}
	.st31{fill:#EEE1C0;}
	.st32{opacity:0.15;}
	.st33{fill:#FF5310;}
	.st34{fill:#FFDF24;}
	.st35{fill:#47D658;}
	.st36{fill:#002B9C;}
	.st37{fill:#E02518;}
	.st38{fill:#AF3E3E;}
	.st39{opacity:0.46;fill:#FFFFFF;}
	.st40{fill:#FDCD06;}
	.st41{fill:#FECD04;}
	.st42{opacity:0.98;fill:#B2B3B8;}
	.st43{opacity:0.51;}
	.st44{fill:#B2B3B8;}
	.st45{opacity:0.46;}
	.st46{opacity:0.98;}
	
		.st47{clip-path:url(#SVGID_00000044880874484548992360000010576957341026151841_);fill:#FFFFFF;stroke:#DFC298;stroke-width:0.75;stroke-miterlimit:10;}
	.st48{clip-path:url(#SVGID_00000044880874484548992360000010576957341026151841_);}
	.st49{clip-path:url(#SVGID_00000044880874484548992360000010576957341026151841_);fill:none;}
	.st50{opacity:0.4;clip-path:url(#SVGID_00000148662684619232997590000013626005980728772268_);}
	.st51{fill:#FFBD00;}
	.st52{fill:#E0251A;}
	
		.st53{clip-path:url(#SVGID_00000070102289050749675350000004530698474208522644_);fill:#FFFFFF;stroke:#DFC298;stroke-width:0.75;stroke-miterlimit:10;}
	.st54{clip-path:url(#SVGID_00000070102289050749675350000004530698474208522644_);}
	.st55{clip-path:url(#SVGID_00000070102289050749675350000004530698474208522644_);fill:none;}
	.st56{opacity:0.4;clip-path:url(#SVGID_00000013909820684070760170000002554390159868549279_);}
	
		.st57{clip-path:url(#SVGID_00000182519996877845098340000011705818522516059294_);fill:#FFFFFF;stroke:#DFC298;stroke-width:0.75;stroke-miterlimit:10;}
	.st58{clip-path:url(#SVGID_00000182519996877845098340000011705818522516059294_);}
	.st59{clip-path:url(#SVGID_00000182519996877845098340000011705818522516059294_);fill:none;}
	.st60{opacity:0.4;clip-path:url(#SVGID_00000180363180669050057380000015903804294456256944_);}
	.st61{fill:#FCCE06;}
	.st62{fill:#060611;}
	.st63{fill:#FF313B;}
	.st64{opacity:0.4;clip-path:url(#SVGID_00000105398424889923451800000010670096326876399787_);}
	.st65{fill:#B80026;}
	.st66{fill:#D43B00;}
	
		.st67{clip-path:url(#SVGID_00000056418862149659868130000009687579487185051831_);fill:#FFFFFF;stroke:#DFC298;stroke-width:0.75;stroke-miterlimit:10;}
	.st68{clip-path:url(#SVGID_00000056418862149659868130000009687579487185051831_);}
	.st69{clip-path:url(#SVGID_00000056418862149659868130000009687579487185051831_);fill:none;}
	.st70{opacity:0.4;clip-path:url(#SVGID_00000039113440163364079710000010178303838656611233_);}
	.st71{fill:#5111F3;}
	.st72{fill:#FE5825;}
	.st73{fill:#E24100;}
	.st74{fill:#FC8472;}
	.st75{opacity:0.12;}
	
		.st76{clip-path:url(#SVGID_00000035530997247721005070000011516954216097707169_);fill:#FFFFFF;stroke:#DFC298;stroke-width:0.75;stroke-miterlimit:10;}
	.st77{clip-path:url(#SVGID_00000035530997247721005070000011516954216097707169_);}
	.st78{clip-path:url(#SVGID_00000035530997247721005070000011516954216097707169_);fill:none;}
	.st79{opacity:0.4;clip-path:url(#SVGID_00000145056805239792327110000002075484408501794450_);}
	.st80{fill:#FCF1E6;stroke:#DFC298;stroke-width:0.75;stroke-miterlimit:10;}
	.st81{fill:#242348;}
</style>
<g>
	<g>
		<g>
			<g>
				<path class="st4" d="M324.96,56.04c-5.36-15.99-3.26-19.42-2.01-21.48c1.37-2.25,3.64-3.77,6.22-4.17
					c0.44-0.07,0.9-0.1,1.35-0.1c2.39,0,4.65,0.96,6.36,2.69c1.51,1.53,4.32,4.39,4.05,20.59L324.96,56.04z"/>
				<path class="st4" d="M330.51,38.48c2.46,0,2.21,14.96,2.21,14.96s-4.88-14.55-2.31-14.95
					C330.45,38.49,330.48,38.48,330.51,38.48 M330.51,22.09c-0.87,0-1.74,0.07-2.59,0.2c-4.98,0.77-9.34,3.69-11.97,8.01
					c-3.29,5.4-4.23,12.03,1.24,28.34l31.93-4.94c0.27-16.35-2.25-22.25-6.4-26.47C339.45,23.92,335.12,22.09,330.51,22.09
					L330.51,22.09z"/>
			</g>
			<g>
				<path class="st4" d="M316.48,66.95c-12.63-11.16-12.54-15.19-12.48-17.6c0.06-2.64,1.26-5.09,3.3-6.72
					c1.56-1.25,3.52-1.94,5.53-1.94c3.83,0,7.96,1.23,16.24,16.14L316.48,66.95z"/>
				<path class="st4" d="M312.82,48.88c2.45,0,9.08,11.93,9.08,11.93s-11.5-10.17-9.48-11.79
					C312.54,48.93,312.68,48.88,312.82,48.88 M312.82,32.49c-3.87,0-7.65,1.33-10.66,3.75c-3.92,3.15-6.24,7.86-6.36,12.92
					c-0.15,6.32,2.35,12.53,15.25,23.93l25.18-20.24c-0.2-0.36-2.02-3.62-4.26-7.02C328.9,41.17,323.19,32.49,312.82,32.49
					L312.82,32.49z"/>
			</g>
			<g>
				<path class="st4" d="M314.59,80.63c-16.52-3.35-18.45-6.89-19.61-9c-1.27-2.31-1.45-5.04-0.51-7.47
					c1.36-3.51,4.66-5.69,8.6-5.69c1.36,0,5.51,0,17.35,7.1L314.59,80.63z"/>
				<path class="st4" d="M303.08,66.67c3.24,0,13.14,5.93,13.14,5.93s-15.04-3.05-14.1-5.47C302.24,66.81,302.58,66.67,303.08,66.67
					 M303.08,50.28c-7.29,0-13.67,4.29-16.24,10.92c-1.82,4.69-1.47,9.93,0.95,14.37c3.03,5.55,8.3,9.67,25.17,13.1l11.69-30.12
					C310.86,50.28,305.4,50.28,303.08,50.28L303.08,50.28z"/>
			</g>
			<g>
				<path class="st4" d="M304.07,96.91c-6.04,0-9.34-3.86-9.93-7.69c-0.39-2.55,0.35-5.15,2.05-7.13c2.52-2.94,6.58-4.64,19.89-4.64
					c0.78,0,1.25,0.01,1.25,0.01l2.47,15.96C317.35,94.25,309.01,96.91,304.07,96.91L304.07,96.91z"/>
				<path class="st4" d="M316.08,85.65c0.69,0,1.11,0.01,1.11,0.01s-9.12,3.06-13.12,3.06c-1.05,0-1.75-0.21-1.83-0.75
					C301.9,85.83,312.56,85.65,316.08,85.65 M316.08,69.26c-12.47,0-20.73,1.23-26.11,7.5c-3.26,3.8-4.69,8.8-3.93,13.71
					c1.09,7.05,7.2,14.63,18.03,14.63c5.8,0,13.97-2.45,18.33-3.91l-4.94-31.93C317.46,69.27,316.94,69.26,316.08,69.26
					L316.08,69.26z"/>
			</g>
			<g>
				<path class="st4" d="M313.31,114.39c-2.72,0-5.25-1.2-6.94-3.3c-1.63-2.03-2.28-4.68-1.77-7.27c0.46-2.36,1.24-6.31,15.97-14.5
					l10.12,12.59c-10.96,12.4-14.96,12.48-17.33,12.48C313.34,114.39,313.33,114.39,313.31,114.39z"/>
				<path class="st4" d="M324.56,96.48L324.56,96.48 M324.56,96.48c0,0-8.59,9.72-11.24,9.72c-0.23,0-0.42-0.08-0.55-0.24
					C311.14,103.94,324.56,96.48,324.56,96.48 M324.56,80.09L324.56,80.09l0,11.97l-7.96-9.9c-15.05,8.36-18.82,13.88-20.03,20.09
					c-0.97,4.97,0.28,10.06,3.43,13.98c3.25,4.04,8.1,6.36,13.32,6.36c6.2,0,12.29-2.55,23.52-15.25l-12.28-15.27L324.56,80.09
					L324.56,80.09z M324.56,112.87L324.56,112.87L324.56,112.87L324.56,112.87z"/>
			</g>
			<g>
				<path class="st4" d="M331.09,124.51c-1.09,0-2.16-0.2-3.18-0.6c-2.43-0.94-4.32-2.92-5.17-5.41c-0.78-2.28-2.09-6.08,6.58-20.54
					l15.06,5.84C341.72,116.92,338.69,124.51,331.09,124.51C331.1,124.51,331.1,124.51,331.09,124.51z"/>
				<path class="st4" d="M336.35,102.17L336.35,102.17 M336.35,102.17c0,0-2.87,14.15-5.25,14.15c-0.07,0-0.15-0.01-0.22-0.04
					C328.46,115.33,336.35,102.17,336.35,102.17 M336.35,85.78L336.35,85.78l0,13.42l-14.06-5.45c-8.85,14.76-9.36,21.43-7.31,27.41
					c1.64,4.79,5.27,8.57,9.96,10.39c1.97,0.76,4.04,1.15,6.15,1.15c3.42,0,11.89-1.15,16.74-11.81c0.88-1.93,1.71-4.27,2.53-7.13
					c1.16-4.04,1.96-7.91,2.04-8.34l-16.06-6.23L336.35,85.78L336.35,85.78z M336.35,118.56L336.35,118.56L336.35,118.56
					L336.35,118.56z"/>
			</g>
			<g>
				<path class="st4" d="M351.62,124.35c-2.39,0-4.65-0.96-6.36-2.69c-1.51-1.53-4.32-4.39-4.05-20.59l15.96-2.47
					c5.36,15.99,3.26,19.42,2.01,21.48c-1.37,2.25-3.64,3.77-6.22,4.17C352.52,124.32,352.07,124.35,351.62,124.35
					C351.62,124.35,351.62,124.35,351.62,124.35z"/>
				<path class="st4" d="M349.41,101.2c0,0,4.88,14.55,2.31,14.95c-0.03,0.01-0.06,0.01-0.1,0.01
					C349.16,116.16,349.41,101.2,349.41,101.2 M364.94,95.99l-31.93,4.94c-0.27,16.35,2.25,22.25,6.4,26.47
					c3.26,3.32,7.59,5.14,12.2,5.14c0.87,0,1.74-0.07,2.59-0.2c4.98-0.77,9.34-3.69,11.97-8.01
					C369.47,118.94,370.41,112.31,364.94,95.99L364.94,95.99z"/>
			</g>
			<g>
				<path class="st4" d="M369.31,113.95c-3.83,0-7.96-1.23-16.24-16.14l12.59-10.12c12.63,11.17,12.54,15.19,12.48,17.6
					c-0.06,2.64-1.26,5.09-3.3,6.72C373.28,113.26,371.31,113.95,369.31,113.95C369.31,113.95,369.31,113.95,369.31,113.95z"/>
				<path class="st4" d="M360.23,93.83c0,0,11.5,10.17,9.48,11.79c-0.12,0.09-0.25,0.14-0.4,0.14
					C366.85,105.76,360.23,93.83,360.23,93.83 M371.08,81.55l-25.18,20.24c0.2,0.36,2.02,3.62,4.26,7.02
					c3.07,4.66,8.78,13.34,19.15,13.34c3.87,0,7.65-1.33,10.66-3.75c3.92-3.15,6.24-7.86,6.36-12.92
					C386.48,99.16,383.98,92.95,371.08,81.55L371.08,81.55z"/>
			</g>
			<g>
				<path class="st4" d="M379.05,96.16c-1.36,0-5.51,0-17.35-7.1l5.84-15.06c16.52,3.35,18.45,6.89,19.61,9
					c1.27,2.32,1.45,5.04,0.51,7.47C386.29,93.99,383,96.16,379.05,96.16C379.06,96.16,379.06,96.16,379.05,96.16z"/>
				<path class="st4" d="M365.92,82.04c0,0,15.04,3.05,14.1,5.47c-0.12,0.32-0.47,0.46-0.96,0.46
					C375.81,87.97,365.92,82.04,365.92,82.04 M369.18,65.98l-11.69,30.12c13.79,8.27,19.24,8.27,21.57,8.27
					c7.29,0,13.67-4.29,16.24-10.92c1.82-4.69,1.47-9.93-0.95-14.37C391.31,73.53,386.04,69.4,369.18,65.98L369.18,65.98z"/>
			</g>
			<g>
				<path class="st4" d="M366.05,77.18c-0.78,0-1.24-0.01-1.24-0.01l-2.47-15.96c2.44-0.82,10.78-3.48,15.72-3.48
					c6.04,0,9.34,3.86,9.93,7.69c0.39,2.55-0.35,5.15-2.05,7.13C383.43,75.48,379.36,77.18,366.05,77.18
					C366.05,77.18,366.05,77.18,366.05,77.18z"/>
				<path class="st4" d="M378.07,65.92c1.05,0,1.75,0.21,1.83,0.75c0.33,2.14-10.32,2.32-13.84,2.32c-0.69,0-1.11-0.01-1.11-0.01
					S374.07,65.92,378.07,65.92 M378.07,49.53c-5.8,0-13.97,2.45-18.33,3.91l4.94,31.93c0,0,0.52,0.01,1.38,0.01
					c12.47,0,20.73-1.23,26.11-7.5c3.26-3.8,4.69-8.8,3.93-13.71C395,57.12,388.9,49.53,378.07,49.53L378.07,49.53z"/>
			</g>
			<g>
				<path class="st4" d="M351.44,52.73c11.03-12.48,15.01-12.48,17.38-12.48c2.72,0,5.25,1.2,6.94,3.3
					c1.63,2.03,2.28,4.68,1.77,7.27c-0.46,2.36-1.24,6.31-15.97,14.5L351.44,52.73z"/>
				<path class="st4" d="M368.82,48.44c0.23,0,0.42,0.08,0.55,0.24c1.63,2.02-11.79,9.48-11.79,9.48S366.16,48.44,368.82,48.44
					 M368.82,32.05c-6.2,0-12.29,2.55-23.52,15.25l20.24,25.18c15.05-8.36,18.82-13.88,20.03-20.09c0.97-4.97-0.28-10.06-3.43-13.98
					C378.89,34.37,374.03,32.05,368.82,32.05L368.82,32.05z"/>
			</g>
			<g>
				<path class="st4" d="M337.75,50.84c2.66-13.12,5.69-20.71,13.28-20.71c1.09,0,2.17,0.2,3.19,0.6c2.43,0.94,4.32,2.92,5.17,5.41
					c0.78,2.28,2.09,6.08-6.58,20.54L337.75,50.84z"/>
				<path class="st4" d="M351.03,38.32c0.07,0,0.15,0.01,0.22,0.04c2.42,0.94-5.47,14.1-5.47,14.1S348.65,38.32,351.03,38.32
					 M351.03,21.94c-3.42,0-11.89,1.15-16.74,11.81c-0.88,1.93-1.71,4.27-2.53,7.13c-1.16,4.04-1.96,7.91-2.04,8.34l30.12,11.69
					c8.85-14.76,9.36-21.43,7.31-27.41c-1.64-4.79-5.27-8.57-9.96-10.39C355.22,22.32,353.15,21.94,351.03,21.94L351.03,21.94z"/>
			</g>
			<g>
				<path class="st4" d="M332.28,70.75c-4.33-44.25-0.66-48.29,1.53-50.71c1.71-1.89,4.13-2.97,6.62-2.97s4.91,1.08,6.62,2.97
					c2.19,2.42,5.86,6.46,1.53,50.71H332.28z"/>
				<path class="st4" d="M340.43,25.26c4.37,0,0,44.69,0,44.69S336.06,25.26,340.43,25.26 M340.43,8.88
					c-4.81,0-9.43,2.06-12.69,5.66c-5.28,5.82-6.41,13.46-5.23,35.5c0.58,10.87,1.57,21.08,1.62,21.51h32.62
					c0.04-0.43,1.04-10.64,1.62-21.51c1.17-22.05,0.05-29.68-5.23-35.5C349.86,10.94,345.24,8.88,340.43,8.88L340.43,8.88z"/>
			</g>
			<g>
				<path class="st4" d="M330.17,76.02c-25.87-36.15-24.72-41.49-24.03-44.68c0.54-2.49,2.09-4.63,4.25-5.88
					c1.34-0.77,2.87-1.18,4.42-1.18c5.74,0,9.62,3.6,19.96,23.86c4.98,9.75,9.33,19.33,9.52,19.73L330.17,76.02z"/>
				<path class="st4" d="M314.81,32.47c4.42,0,22.02,38.79,22.02,38.79s-26.13-36.51-22.34-38.7
					C314.59,32.5,314.7,32.47,314.81,32.47 M314.82,16.08h-0.01c-2.99,0-5.93,0.79-8.51,2.28c-4.16,2.4-7.14,6.5-8.16,11.25
					c-1.66,7.68,1.18,14.86,13.22,33.36c5.94,9.12,11.9,17.47,12.16,17.82l28.25-16.31c-0.19-0.41-4.62-10.16-9.68-20.07
					c-3.09-6.05-5.8-10.95-8.06-14.56C331.01,25.04,325.42,16.08,314.82,16.08L314.82,16.08z"/>
			</g>
			<g>
				<path class="st4" d="M330.98,81.65c-40.48-18.37-42.15-23.57-43.15-26.68c-0.78-2.43-0.51-5.06,0.74-7.22
					c1.62-2.8,4.6-4.47,7.99-4.47c3.15,0,7.73,0.98,25.66,12.69c8.74,5.71,16.59,11.32,16.92,11.56L330.98,81.65z"/>
				<path class="st4" d="M296.56,51.46c6.06,0,37.81,22.72,37.81,22.72s-40.89-18.56-38.7-22.34
					C295.81,51.58,296.12,51.46,296.56,51.46 M296.56,35.08L296.56,35.08c-6.35,0-11.99,3.2-15.08,8.57
					c-2.4,4.16-2.93,9.2-1.45,13.82c2.4,7.49,8.45,12.28,28.13,22.28c9.7,4.93,19.05,9.18,19.44,9.36l16.31-28.25
					c-0.34-0.24-8.32-5.95-17.2-11.75C308.55,37.25,302.31,35.08,296.56,35.08L296.56,35.08z"/>
			</g>
			<g>
				<path class="st4" d="M300.59,88.09c-4.02,0-7.12-0.17-9.47-0.51c-9.31-1.37-10.31-7.19-10.31-9.63c0-2.44,1-8.26,10.31-9.63
					c2.35-0.34,5.44-0.51,9.47-0.51c13.49,0,33.07,1.9,33.9,1.98v16.31C333.67,86.19,314.08,88.09,300.59,88.09z"/>
				<path class="st4" d="M300.59,76.01c13.24,0,33.1,1.94,33.1,1.94s-19.86,1.94-33.1,1.94c-6.62,0-11.59-0.49-11.59-1.94
					C289.01,76.5,293.97,76.01,300.59,76.01 M300.6,59.62L300.6,59.62c-4.43,0-7.91,0.2-10.66,0.6c-2.56,0.38-4.73,0.97-6.66,1.82
					c-6.58,2.9-10.66,9-10.66,15.92c0,6.92,4.08,13.02,10.66,15.92c1.92,0.85,4.1,1.44,6.66,1.82c2.75,0.4,6.23,0.6,10.66,0.6
					c13.88,0,33.86-1.94,34.7-2.02l0-32.62C334.45,61.56,314.48,59.62,300.6,59.62L300.6,59.62z"/>
			</g>
			<g>
				<path class="st4" d="M297.19,112.47c-3.38,0-6.37-1.67-7.99-4.47c-1.25-2.17-1.52-4.8-0.74-7.22c1-3.11,2.67-8.31,43.15-26.68
					l8.16,14.12c-0.33,0.24-8.18,5.85-16.92,11.56C304.92,111.49,300.34,112.47,297.19,112.47z"/>
				<path class="st4" d="M335,81.55c0,0-31.74,22.72-37.81,22.72c-0.44,0-0.74-0.12-0.89-0.38C294.11,100.11,335,81.55,335,81.55
					 M328.23,66.63c-0.39,0.18-9.74,4.42-19.44,9.36c-19.68,10.01-25.73,14.79-28.13,22.28c-1.48,4.62-0.96,9.66,1.45,13.82
					c3.1,5.37,8.74,8.57,15.09,8.57c5.75,0,11.99-2.17,30.14-14.03c8.88-5.8,16.87-11.51,17.2-11.75L328.23,66.63L328.23,66.63z
					 M335,97.94L335,97.94L335,97.94L335,97.94z"/>
			</g>
			<g>
				<path class="st4" d="M315.91,131c-1.55,0-3.08-0.41-4.42-1.18c-2.16-1.25-3.71-3.39-4.25-5.88c-0.69-3.19-1.85-8.53,24.03-44.68
					l14.12,8.15c-0.18,0.4-4.54,9.98-9.52,19.73C325.53,127.39,321.65,131,315.91,131z"/>
				<path class="st4" d="M337.93,84.02c0,0-17.6,38.79-22.02,38.79c-0.12,0-0.23-0.03-0.33-0.08
					C311.8,120.53,337.93,84.02,337.93,84.02 M324.6,74.48c-0.25,0.35-6.22,8.7-12.16,17.82c-12.04,18.5-14.88,25.68-13.22,33.36
					c1.03,4.75,4,8.85,8.16,11.25c2.58,1.49,5.53,2.28,8.52,2.28c10.6,0,16.2-8.96,19.2-13.77c2.26-3.61,4.97-8.51,8.06-14.56
					c5.07-9.92,9.5-19.66,9.68-20.07L324.6,74.48L324.6,74.48z M337.93,100.41L337.93,100.41L337.93,100.41L337.93,100.41z"/>
			</g>
			<g>
				<path class="st4" d="M341.7,137.57c-2.5,0-4.91-1.08-6.62-2.97c-2.19-2.42-5.86-6.46-1.53-50.71h16.31
					c4.33,44.25,0.66,48.29-1.53,50.71C346.61,136.49,344.2,137.57,341.7,137.57z"/>
				<path class="st4" d="M341.7,84.69c0,0,4.37,44.69,0,44.69C337.32,129.38,341.7,84.69,341.7,84.69 M358.01,83.09h-32.62
					c-0.04,0.43-1.04,10.64-1.62,21.51c-1.17,22.05-0.05,29.68,5.23,35.5c3.26,3.6,7.89,5.66,12.69,5.66
					c4.81,0,9.43-2.06,12.69-5.66c5.28-5.82,6.41-13.46,5.23-35.5C359.05,93.74,358.05,83.52,358.01,83.09L358.01,83.09z"/>
			</g>
			<g>
				<path class="st4" d="M367.32,130.36c-5.74,0-9.62-3.6-19.96-23.86c-4.98-9.75-9.33-19.33-9.52-19.73l14.12-8.16
					c25.87,36.15,24.72,41.49,24.03,44.68c-0.54,2.49-2.09,4.63-4.25,5.88C370.4,129.96,368.87,130.36,367.32,130.36z"/>
				<path class="st4" d="M345.3,83.38c0,0,26.13,36.51,22.34,38.7c-0.1,0.06-0.21,0.08-0.33,0.08
					C362.9,122.17,345.3,83.38,345.3,83.38 M358.63,73.85l-28.25,16.31c0.19,0.41,4.62,10.16,9.68,20.07
					c3.09,6.05,5.8,10.95,8.06,14.56c3,4.81,8.6,13.77,19.2,13.77c2.99,0,5.94-0.79,8.52-2.28c4.16-2.4,7.14-6.5,8.16-11.25
					c1.66-7.68-1.18-14.86-13.22-33.36C364.85,82.55,358.88,74.2,358.63,73.85L358.63,73.85z"/>
			</g>
			<g>
				<path class="st4" d="M385.57,111.37c-3.15,0-7.73-0.98-25.66-12.69c-8.74-5.71-16.59-11.32-16.92-11.56l8.15-14.13
					c40.49,18.37,42.15,23.57,43.15,26.68c0.78,2.43,0.51,5.06-0.74,7.22C391.94,109.7,388.96,111.37,385.57,111.37z"/>
				<path class="st4" d="M347.76,80.46c0,0,40.89,18.56,38.7,22.34c-0.15,0.26-0.45,0.38-0.89,0.38
					C379.51,103.18,347.76,80.46,347.76,80.46 M354.54,65.53l-16.31,28.25c0.34,0.24,8.32,5.95,17.21,11.75
					c18.15,11.86,24.39,14.03,30.14,14.03c6.35,0,11.99-3.2,15.08-8.57c2.4-4.16,2.93-9.2,1.45-13.82
					c-2.4-7.49-8.45-12.28-28.13-22.28C364.27,69.96,354.93,65.71,354.54,65.53L354.54,65.53z"/>
			</g>
			<g>
				<path class="st4" d="M381.54,86.83c-13.49,0-33.07-1.9-33.9-1.98V68.53c0.83-0.08,20.41-1.98,33.9-1.98
					c4.02,0,7.12,0.17,9.47,0.51c9.31,1.37,10.31,7.19,10.31,9.63c0,2.44-1,8.26-10.31,9.63C388.65,86.66,385.56,86.83,381.54,86.83
					z"/>
				<path class="st4" d="M381.54,74.74c6.62,0,11.59,0.49,11.59,1.94c0,1.46-4.97,1.94-11.59,1.94c-13.24,0-33.1-1.94-33.1-1.94
					S368.3,74.74,381.54,74.74"/>
			</g>
			<g>
				<path class="st4" d="M342.36,66.42c0.33-0.24,8.18-5.85,16.92-11.56c17.93-11.71,22.51-12.69,25.66-12.69
					c3.38,0,6.37,1.67,7.99,4.47c1.25,2.16,1.52,4.8,0.74,7.22c-1,3.11-2.67,8.31-43.15,26.68L342.36,66.42z"/>
				<path class="st4" d="M384.94,50.37c0.44,0,0.74,0.12,0.89,0.38c2.19,3.79-38.7,22.34-38.7,22.34S378.87,50.37,384.94,50.37
					 M384.94,33.98L384.94,33.98c-5.76,0-11.99,2.17-30.14,14.03c-8.88,5.8-16.87,11.51-17.2,11.75l16.31,28.25
					c0.39-0.18,9.74-4.42,19.44-9.36c19.68-10.01,25.73-14.79,28.13-22.28c1.48-4.62,0.96-9.66-1.45-13.82
					C396.93,37.18,391.29,33.98,384.94,33.98L384.94,33.98z"/>
			</g>
			<g>
				<path class="st4" d="M336.74,67.24c0.18-0.4,4.54-9.98,9.52-19.73c10.35-20.25,14.22-23.86,19.96-23.86
					c1.55,0,3.08,0.41,4.42,1.18c2.16,1.25,3.71,3.39,4.25,5.88c0.69,3.19,1.85,8.53-24.03,44.68L336.74,67.24z"/>
				<path class="st4" d="M366.22,31.84c0.12,0,0.23,0.03,0.33,0.08c3.79,2.19-22.34,38.7-22.34,38.7S361.8,31.84,366.22,31.84
					 M366.22,15.45L366.22,15.45c-10.61,0-16.2,8.96-19.2,13.77c-2.26,3.61-4.97,8.51-8.06,14.56c-5.07,9.92-9.5,19.66-9.68,20.07
					l28.25,16.31c0.25-0.35,6.22-8.7,12.16-17.82c12.04-18.5,14.88-25.68,13.22-33.36c-1.03-4.75-4-8.85-8.16-11.25
					C372.16,16.24,369.21,15.45,366.22,15.45L366.22,15.45z"/>
			</g>
		</g>
	</g>
	<g>
		<path class="st36" d="M263.41,203.29c-1.24,0-2.53-0.36-3.84-1.07c-1.8-0.98-3.16-2.33-3.93-3.93c-0.44-0.91-0.72-1.93-0.82-3.06
			c-0.33-3.6,1.17-7.41,4.23-10.73c1.82-1.98,3.94-3.57,6-5.11c0.7-0.53,1.41-1.06,2.1-1.6c2.96-2.33,5.05-4.47,6.57-6.75
			c0.38-0.57,1.17-1.75,2.51-1.75c0.53,0,1.03,0.19,1.42,0.54c1.12,0.13,2.03,1.03,2.27,2.27c0.27,1.38-0.24,2.64-0.52,3.32
			c-0.64,1.57-1.37,3.11-2.07,4.6c-1.03,2.18-2,4.24-2.73,6.4c-0.4,1.18-0.72,2.39-1.07,3.67c-0.99,3.64-2.01,7.41-4.68,10.41
			c-1.35,1.52-2.84,2.42-4.43,2.69C264.08,203.27,263.74,203.29,263.41,203.29L263.41,203.29z M270.66,181.77
			c-0.46,0.32-0.92,0.63-1.37,0.94c-0.81,0.55-1.62,1.1-2.41,1.68c-1.7,1.24-4.11,3.19-5.3,5.73c-0.41,0.88-0.72,1.91-0.96,3.17
			c-0.15,0.8-0.27,1.7-0.03,2.37c0.23,0.64,0.9,1.16,1.62,1.26c0.1,0.01,0.2,0.02,0.3,0.02c0.67,0,1.39-0.32,1.88-0.82
			c0.55-0.57,0.95-1.48,1.3-2.28C267.42,189.87,269.09,185.84,270.66,181.77z"/>
		<path class="st36" d="M276.22,171.31c0.27,0,0.24,0.66,0.07,1.36c-0.33,0.49-0.55,1.08-0.75,1.64c-0.04,0.11-0.07,0.21-0.11,0.32
			c-0.68,1.1-1.59,2.06-2.54,2.91c-2.21,1.97-4.79,3.48-7.19,5.23s-4.67,3.81-5.93,6.5c-0.54,1.16-0.88,2.4-1.12,3.65
			c-0.21,1.13-0.34,2.33,0.05,3.41c0.49,1.35,1.79,2.35,3.21,2.56c0.19,0.03,0.39,0.04,0.58,0.04c1.24,0,2.47-0.54,3.33-1.44
			c0.77-0.8,1.23-1.84,1.68-2.85c2.89-6.56,5.53-13.24,7.92-20c0.2-0.32,0.38-0.64,0.53-0.98c0.13-0.28,0.25-0.64,0.33-0.98
			c0.2-0.28,0.43-0.53,0.73-0.72c0.09-0.06,0.18-0.11,0.29-0.12c0.02,0,0.03,0,0.05,0c0.31,0,0.53,0.35,0.6,0.67
			c0.14,0.74-0.13,1.48-0.41,2.18c-1.53,3.75-3.56,7.29-4.85,11.12c-1.55,4.59-2.12,9.77-5.35,13.39c-0.87,0.98-1.97,1.83-3.26,2.05
			c-0.22,0.04-0.45,0.05-0.67,0.05c-1,0-2-0.35-2.88-0.83c-1.29-0.7-2.45-1.72-3.09-3.04c-0.36-0.74-0.55-1.55-0.62-2.36
			c-0.31-3.39,1.4-6.69,3.71-9.19c2.3-2.5,5.18-4.39,7.86-6.49c2.63-2.07,5.12-4.41,6.99-7.2
			C275.78,171.55,276.05,171.31,276.22,171.31 M276.22,167.31c-2.41,0-3.69,1.91-4.17,2.63c-1.4,2.09-3.36,4.09-6.15,6.29
			c-0.68,0.53-1.37,1.05-2.06,1.57c-2.12,1.59-4.32,3.24-6.27,5.36c-3.44,3.74-5.13,8.09-4.75,12.26c0.12,1.37,0.46,2.63,1.01,3.75
			c0.96,1.97,2.61,3.63,4.77,4.81c1.61,0.87,3.22,1.31,4.79,1.31c0.45,0,0.9-0.04,1.33-0.11c2.05-0.34,3.93-1.46,5.59-3.33
			c2.99-3.35,4.12-7.53,5.12-11.22c0.34-1.25,0.66-2.44,1.04-3.56c0.69-2.05,1.64-4.06,2.65-6.19c0.72-1.51,1.46-3.08,2.12-4.7
			c0.33-0.81,1.02-2.49,0.63-4.46c-0.37-1.9-1.7-3.32-3.4-3.76C277.81,167.55,277.03,167.31,276.22,167.31L276.22,167.31z
			 M262.45,194.92c-0.02-0.13-0.02-0.47,0.13-1.26c0.2-1.09,0.47-1.97,0.81-2.69c0.55-1.17,1.47-2.31,2.85-3.52
			c-0.78,1.87-1.57,3.73-2.38,5.58c-0.27,0.62-0.61,1.39-0.91,1.7c-0.12,0.13-0.32,0.21-0.43,0.21
			C262.48,194.93,262.47,194.93,262.45,194.92L262.45,194.92z"/>
	</g>
	<g>
		<g>
			<g>
				<path class="st23" d="M333.14,54.23c0,0,0.25-15.08-2.27-14.69C328.35,39.93,333.14,54.23,333.14,54.23z"/>
			</g>
			<path class="st16" d="M322.51,61.47c0,0-7.33-13.18-9.31-11.59C311.21,51.48,322.51,61.47,322.51,61.47z"/>
			<g>
				<path class="st24" d="M316.92,73.06c0,0-12.94-7.76-13.86-5.38C302.14,70.06,316.92,73.06,316.92,73.06z"/>
			</g>
			<path class="st16" d="M317.87,85.89c0,0-15.08-0.25-14.69,2.27C303.57,90.68,317.87,85.89,317.87,85.89z"/>
			<g>
				<path class="st24" d="M325.11,96.52c0,0-13.18,7.32-11.59,9.31C315.12,107.82,325.11,96.52,325.11,96.52z"/>
			</g>
			<path class="st16" d="M336.7,102.11c0,0-7.76,12.94-5.38,13.86C333.7,116.89,336.7,102.11,336.7,102.11z"/>
			<path class="st16" d="M349.53,101.16c0,0-0.25,15.08,2.27,14.69C354.32,115.46,349.53,101.16,349.53,101.16z"/>
			<g>
				<path class="st24" d="M360.16,93.92c0,0,7.32,13.18,9.31,11.59C371.46,103.91,360.16,93.92,360.16,93.92z"/>
			</g>
			<path class="st16" d="M364.8,69.5c0,0,15.08,0.25,14.69-2.27C379.1,64.71,364.8,69.5,364.8,69.5z"/>
			<g>
				<path class="st24" d="M357.56,58.86c0,0,13.18-7.32,11.59-9.31C367.55,47.56,357.56,58.86,357.56,58.86z"/>
			</g>
			<path class="st16" d="M345.97,53.28c0,0,7.76-12.94,5.38-13.86C348.97,38.5,345.97,53.28,345.97,53.28z"/>
			<path class="st16" d="M340.71,70.45c0,0-4.3-43.91,0-43.91C345.01,26.54,340.71,70.45,340.71,70.45z"/>
			<path class="st16" d="M337.18,71.73c0,0-25.68-35.88-21.96-38.03C318.94,31.56,337.18,71.73,337.18,71.73z"/>
			<path class="st16" d="M334.75,74.61c0,0-40.18-18.23-38.03-21.96C298.87,48.93,334.75,74.61,334.75,74.61z"/>
			<path class="st16" d="M334.09,78.32c0,0-43.91,4.3-43.91,0C290.18,74.02,334.09,78.32,334.09,78.32z"/>
			<path class="st16" d="M335.38,81.85c0,0-35.88,25.68-38.03,21.96C295.2,100.09,335.38,81.85,335.38,81.85z"/>
			<path class="st16" d="M338.25,84.27c0,0-18.23,40.18-21.96,38.03C312.58,120.15,338.25,84.27,338.25,84.27z"/>
			<path class="st16" d="M341.96,84.93c0,0,4.3,43.91,0,43.91C337.66,128.84,341.96,84.93,341.96,84.93z"/>
			<path class="st16" d="M345.49,83.65c0,0,25.68,35.88,21.96,38.03C363.73,123.83,345.49,83.65,345.49,83.65z"/>
			<path class="st16" d="M347.92,80.78c0,0,40.18,18.23,38.03,21.96C383.8,106.45,347.92,80.78,347.92,80.78z"/>
			<path class="st16" d="M348.58,77.07c0,0,43.91-4.3,43.91,0C392.49,81.37,348.58,77.07,348.58,77.07z"/>
			<path class="st16" d="M347.29,73.53c0,0,35.88-25.68,38.03-21.96C387.47,55.3,347.29,73.53,347.29,73.53z"/>
			<path class="st16" d="M344.42,71.11c0,0,18.23-40.18,21.96-38.03C370.09,35.23,344.42,71.11,344.42,71.11z"/>
		</g>
	</g>
	<g>
		<g>
			<path class="st16" d="M351.25,70.27c-2.2-2.2-5.01-3.53-8.04-3.82c-1.26-0.41-2.6-0.63-3.99-0.63c-7.19,0-13.04,5.85-13.04,13.04
				c0,7.19,5.85,13.04,13.04,13.04c0.07,0,0.15,0,0.22-0.01c0.63,0.12,1.27,0.18,1.91,0.18c1.1,0,2.22-0.17,3.31-0.52
				c6.56-2.06,10.34-6.51,10.36-12.21C355.04,75.94,353.7,72.72,351.25,70.27z"/>
		</g>
		<g>
			<path class="st13" d="M348.62,75.92c-0.96,1.03-1.77,2.15-2.4,3.36c-0.66,1.23-1,2.55-1.58,3.84c-0.91,2.2-2.75,3.38-5.04,3.81
				c-0.7,0.14-1.39,0.22-2.1,0.27c1.94-0.67,4-1.19,5.34-2.76c0.87-1.03,1.28-2.35,1.8-3.6C345.45,78.87,346.83,77.05,348.62,75.92
				L348.62,75.92z"/>
		</g>
		<g>
			<path class="st13" d="M342.03,72.29c-0.84-0.05-1.49,0.75-2.11,1.28c0,0-0.75,0.69-0.75,0.69l-2.99,2.76
				c-1.72,1.64-4.34,3.82-5.78,5.69c0.75-1.13,1.65-2.16,2.57-3.16c1.38-1.49,4.14-4.48,5.52-5.97c1.03-1.02,1.95-2.56,3.61-2.57
				C342.1,71,342.03,72.29,342.03,72.29L342.03,72.29z"/>
		</g>
		<g>
			<path class="st13" d="M337.83,70.11c-0.95,1.85-3.01,3.61-5,4.24C333.43,72.22,335.64,70.35,337.83,70.11L337.83,70.11z"/>
		</g>
		<g>
			<path class="st25" d="M333.9,76.88l-1.15,0.03l1.31,0.43c-0.04,0.09-0.15,0.15-0.3,0.13c-0.19,0.4-0.41,0.81-0.65,1.21l0.46,0.08
				c-0.02,0.11-0.11,0.2-0.3,0.22l0.1,4.52l-1.45,0.03l-0.07-3.11c-0.26,0.29-0.52,0.56-0.77,0.8c-0.25-0.28-0.78-0.78-1.1-1
				c0.97-0.77,1.92-2.15,2.43-3.43l0.03,0.01l-0.01-0.54l-2.14,0.05l-0.03-1.41l2.14-0.05l-0.02-0.96l1.77,0.05
				c-0.01,0.11-0.1,0.18-0.3,0.23l0.01,0.64l1.9-0.04l-0.02-0.96l1.78,0.05c-0.01,0.12-0.09,0.18-0.3,0.23l0.01,0.64l2.12-0.05
				l0.03,1.41l-2.12,0.05l0.01,0.65l-1.47,0.03l-0.01-0.65l-1.9,0.04L333.9,76.88z M336.43,81.46c0.01,0.47,0.06,0.52,0.47,0.51
				l1.05-0.02c0.39-0.01,0.45-0.24,0.49-1.47c0.32,0.24,0.95,0.47,1.34,0.55c-0.12,1.72-0.5,2.26-1.66,2.28l-1.39,0.03
				c-1.36,0.03-1.73-0.4-1.76-1.84l-0.1-4.47l1.77,0.05c-0.01,0.11-0.1,0.19-0.3,0.23l0.04,1.58c0.71-0.37,1.39-0.82,1.89-1.22
				l1.19,1.14c-0.04,0.05-0.16,0.08-0.28,0.07c-0.74,0.46-1.78,0.96-2.77,1.37L336.43,81.46z"/>
			<path class="st25" d="M344.88,73.76l1.16,0.03c-0.02,0.14-0.15,0.26-0.34,0.31l0.06,2.75c0.04,1.76,1.18,3.84,4.17,4.9
				c-0.34,0.33-0.79,0.98-1.01,1.41c-2.17-0.88-3.58-2.71-3.92-3.73c-0.29,1.07-1.48,2.92-3.59,3.9c-0.2-0.33-0.74-0.96-1.07-1.25
				c2.85-1.16,3.85-3.47,3.81-5.19l-0.07-3.18L344.88,73.76z M340.46,78.49c0.69-0.65,0.99-1.62,1.1-2.79l1.51,0.29
				c-0.14,1.31-0.39,2.52-1.23,3.29L340.46,78.49z M346.47,78.36c0.46-0.76,0.97-1.9,1.25-2.82l1.81,0.74
				c-0.06,0.09-0.19,0.14-0.35,0.13c-0.34,0.81-0.95,1.86-1.42,2.54L346.47,78.36z"/>
		</g>
		<g>
			<g>
				<path class="st22" d="M351.47,70.35c-2.2-2.2-5.01-3.53-8.04-3.82c-1.26-0.41-2.6-0.63-3.99-0.63
					c-7.19,0-13.04,5.85-13.04,13.04c0,7.19,5.85,13.04,13.04,13.04c0.07,0,0.15,0,0.22-0.01c0.63,0.12,1.27,0.18,1.91,0.18
					c1.1,0,2.22-0.17,3.31-0.52c6.56-2.06,10.34-6.51,10.36-12.21C355.25,76.03,353.91,72.81,351.47,70.35z M351.49,83.89l1.73,0.16
					c-0.54,0.99-1.24,1.9-2.06,2.71l-1.36,0.05C350.49,85.93,351.06,84.94,351.49,83.89z M350.9,70.84l-0.89,0.49
					c-0.93-1.29-2.09-2.4-3.41-3.27C348.23,68.67,349.7,69.63,350.9,70.84z M351.36,71.33c0.78,0.87,1.43,1.86,1.94,2.93l-1.65,0.11
					c-0.33-0.88-0.76-1.72-1.27-2.51L351.36,71.33z M353.57,74.89c0.49,1.22,0.78,2.53,0.85,3.9l-1.95,0.04
					c-0.01-1.33-0.22-2.62-0.61-3.83L353.57,74.89z M352.46,79.48l1.97-0.04c-0.01,1.43-0.33,2.77-0.89,4l-1.8-0.17
					C352.15,82.07,352.41,80.8,352.46,79.48z M349.27,87.49l1.17-0.04c-1.12,0.96-2.41,1.75-3.78,2.34
					C347.63,89.14,348.5,88.36,349.27,87.49z M327.48,78.94c0-6.59,5.36-11.96,11.96-11.96c6.59,0,11.96,5.36,11.96,11.96
					c0,1.49-0.27,2.91-0.77,4.22l-0.13-0.01l-0.04,0.46c-1.82,4.28-6.07,7.29-11.01,7.29C332.84,90.9,327.48,85.53,327.48,78.94z"/>
			</g>
		</g>
	</g>
	<path class="st4" d="M124.46,199.51c-0.9-1.19-1.31-1.99-1.94-2.51c-4.74-3.9-4.26-8.4-1.69-13.22
		c3.99-7.48,7.95-14.97,12.12-22.84c-4.06-3.46-4.15-8.49-2.41-13.9c2.64-8.2,5.62-16.32,7.74-24.65c1.32-5.17,1.14-10.7,1.98-16.02
		c0.59-3.69,1.01-7.73,2.83-10.85c3.92-6.71,10.79-7.34,16.6-2.16c1.09,0.97,1.99,2.16,3.02,3.29c7.39-2.92,14.69-6.12,22.21-8.7
		c7.66-2.64,15.53-4.62,23.27-7.04c1.31-0.41,2.67-1.32,3.54-2.38c2.26-2.76,4.13-5.84,6.42-8.57c1.63-1.95,3.42-4.06,5.6-5.2
		c6.51-3.37,12.38-0.25,13.8,6.98c0.31,1.57,0.04,3.42,0.78,4.7c1.22,2.1,2.84,5.21,4.68,5.5c6.04,0.96,9.91,4.9,13.85,8.68
		c7.78,7.44,12.24,16.63,12.64,27.5c0.08,2.32,0.77,3.74,2.63,5.19c15.89,12.41,24.67,29.2,28.87,48.51
		c1.98,9.11,0.1,17.62-6.28,24.86c-0.65,0.74-0.65,2.19-0.69,3.31c-0.25,7.13,0.02,14.31-0.73,21.38
		c-0.95,9.06-6.58,14.6-15.39,16.74c-1.4,0.34-3,1.51-3.72,2.75c-2.96,5.07-7.6,7.72-12.94,9.15c-12.61,3.36-25.39,3.58-38.04,0.46
		c-3.55-0.88-6.67-3.45-10.05-5.12c-1.23-0.61-2.63-1.25-3.94-1.25c-10.23,0.03-20.47,0.5-30.69,0.23
		c-5.61-0.15-11.19-1.52-16.79-2.22c-1.53-0.19-3.16-0.21-4.66,0.09c-12.36,2.47-24.49,3.08-35.84-3.81
		c-5.16-3.13-9.41-7.12-12.25-12.52c-2.42-4.61-2.45-9.22-0.03-13.8C112.25,205.85,116.51,200.76,124.46,199.51z"/>
	<path class="st15" d="M172.95,170.37c2.92-0.14,4.9-0.14,6.85-0.35c2.2-0.24,4.39-0.62,6.57-1.03
		c18.85-3.58,35.21-12.61,50.21-24.03c7.59-5.77,14.38-12.68,21.01-19.59c5.65-5.89,6.52-13.02,2.86-20.53
		c-3.95-8.1-9.69-14.64-17.72-18.69c-2.49-1.25-5.91-1.23-8.82-0.93C229.9,85.63,226,87,222,87.65c-1.27,0.21-2.96-0.2-4.02-0.95
		c-3.26-2.3-6.72-2.75-10.54-2.1c-17.04,2.9-32.27,10.27-47.04,18.86c-8.63,5.02-14.92,12.12-19.02,21.04
		c-2.3,5-3.72,10.41-5.53,15.64c-0.64,1.85-1.12,3.78-1.94,5.55c-2.69,5.81-1.37,11.14,4.15,14.31
		C149.13,166.37,161.12,169.76,172.95,170.37z"/>
	<path class="st15" d="M137.2,198.92c9.5,2.22,16.35,7.09,20.73,15.41c3.16,6,4.21,12.39,3.89,18.95c-0.2,4.02,1.39,5.6,5.01,5.97
		c0.98,0.1,1.95,0.45,2.92,0.44c12.92-0.18,25.84-0.41,38.76-0.65c0.19,0,0.37-0.27,0.68-0.51c0.44-23.41,8.89-40.04,36.01-40.2
		c-1.41-4.19-2.8-7.62-3.7-11.18c-0.89-3.51-2.73-4.59-6.1-3.51c-11.46,3.69-23.13,6.85-34.36,11.15
		c-13.14,5.03-26.19,6.83-39.65,2.07c-6-2.12-11.83-4.74-18.06-7.26C141.54,192.3,139.53,195.37,137.2,198.92z"/>
	<path class="st15" d="M245.48,246c2.41-0.73,6.8-1.56,10.77-3.35c6.01-2.72,7.03-8.3,2.21-12.79c-3.07-2.86-6.9-5.24-10.8-6.79
		c-6.12-2.44-15.07,0.79-18.93,6.02c-2.46,3.33-2.51,6.75,0.19,9.79C232.76,243.2,237.62,245.61,245.48,246z"/>
	<path class="st15" d="M134.62,218.42c-0.16,0.22-0.32,0.45-0.48,0.67c-2.63,0.54-5.39,0.77-7.87,1.7
		c-5.5,2.07-6.31,8.47-1.71,12.09c4.79,3.77,15.91,4.65,21.19,1.69c4.83-2.71,5.68-8.01,1.13-11.04
		C143.27,221.11,138.74,220.07,134.62,218.42z"/>
	<path class="st15" d="M274.43,206.24c2,7.67,3.86,14.79,5.65,21.65c5.7-5.12,8.24-17.14,4.75-24.77
		C281.13,204.23,277.39,205.35,274.43,206.24z"/>
	<path class="st15" d="M255.11,211.58c-0.08-3.25-3.07-6.14-6.2-5.98c-2.97,0.15-5.41,2.85-5.37,5.92c0.05,3.33,2.93,6.08,6.2,5.91
		C252.83,217.27,255.18,214.71,255.11,211.58z"/>
	<path class="st15" d="M235.82,215.29c0.02-3.31-2.47-5.94-5.72-6.03c-3-0.09-5.59,2.47-5.68,5.6c-0.1,3.38,2.71,6.33,5.94,6.26
		C233.46,221.06,235.8,218.55,235.82,215.29z"/>
	<path class="st15" d="M135.05,215.22c2.99,0.07,5.75-2.35,5.79-5.08c0.04-2.79-2.51-5.17-5.62-5.24c-2.99-0.07-5.72,2.3-5.81,5.06
		C129.32,212.6,132.05,215.15,135.05,215.22z"/>
	<path class="st15" d="M269.44,220.13c0.04-2.78-2.29-5.37-4.95-5.51c-2.76-0.14-5.12,2.25-5.09,5.16c0.03,2.95,2.21,5.19,5.09,5.22
		C267.21,225.04,269.4,222.88,269.44,220.13z"/>
	<path class="st15" d="M115.5,212.61c2.56,1.91,3.94,3.73,5.56,3.96c2.56,0.38,3.99-1.65,3.96-4.17c-0.04-2.43-1.62-4.19-3.96-3.73
		C119.41,208.98,118.05,210.71,115.5,212.61z"/>
	<path class="st13" d="M172.95,170.37c-11.83-0.61-23.82-4-34.89-10.37c-5.52-3.18-6.84-8.5-4.15-14.31c0.82-1.77,1.3-3.7,1.94-5.55
		c1.81-5.23,3.23-10.63,5.53-15.64c4.1-8.92,10.39-16.02,19.02-21.04c14.77-8.59,30-15.96,47.04-18.86c3.81-0.65,7.28-0.2,10.54,2.1
		c1.06,0.75,2.75,1.16,4.02,0.95c4-0.65,7.9-2.02,11.91-2.43c2.91-0.3,6.33-0.32,8.82,0.93c8.03,4.05,13.77,10.59,17.72,18.69
		c3.66,7.51,2.79,14.64-2.86,20.53c-6.62,6.9-13.42,13.82-21.01,19.59c-15,11.41-31.36,20.45-50.21,24.03
		c-2.18,0.41-4.37,0.79-6.57,1.03C177.85,170.23,175.87,170.23,172.95,170.37z M182.69,150.58c1.01-0.58,1.64-0.92,2.24-1.3
		c10.8-6.88,21.47-13.96,32.42-20.58c7.59-4.58,12.86-11.19,18.45-18.4c-8.35-0.97-15.33,0.9-20.97,6.23
		c-9.94,9.39-19.59,19.09-29.38,28.64c-0.33,0.32-0.74,0.55-1.09,0.81c-0.85-0.76-1.57-1.41-2.84-2.55
		C181.98,146.22,182.31,148.23,182.69,150.58z M140.25,147.12c3.39,2.08,6.5,5.46,9.83,5.71c7.22,0.53,14.57-0.54,21.81-0.95
		c0-1.68,0-2.8,0-3.01c-2.81-0.41-5.13-0.5-7.31-1.12c-3.77-1.07-7.49-2.37-11.16-3.75C148.49,142.15,144.33,143.26,140.25,147.12z
		 M183.37,154.41c-4.15,0.69-7.54,1.26-11.6,1.94c2.3,2.45,4.11,4.38,6.27,6.69C179.82,160.16,181.4,157.61,183.37,154.41z"/>
	<path class="st13" d="M137.2,198.92c2.33-3.55,4.35-6.62,6.12-9.32c6.23,2.52,12.06,5.13,18.06,7.26
		c13.46,4.75,26.51,2.96,39.65-2.07c11.23-4.3,22.89-7.46,34.36-11.15c3.37-1.08,5.21-0.01,6.1,3.51c0.9,3.56,2.29,6.99,3.7,11.18
		c-27.12,0.16-35.58,16.79-36.01,40.2c-0.31,0.24-0.49,0.51-0.68,0.51c-12.92,0.24-25.84,0.46-38.76,0.65
		c-0.97,0.01-1.94-0.34-2.92-0.44c-3.62-0.37-5.21-1.95-5.01-5.97c0.33-6.56-0.72-12.95-3.89-18.95
		C153.54,206.01,146.7,201.13,137.2,198.92z"/>
	<path class="st13" d="M249.9,244.83c-4.42,1.2-9.13,1.1-13.39-0.57c-3.06-1.2-5.48-3-7.6-5.38c-2.7-3.04-2.65-6.46-0.19-9.79
		c3.86-5.23,12.81-8.46,18.93-6.02c3.9,1.55,7.73,3.93,10.8,6.79c4.71,4.39,3.82,10.01-2.03,12.71
		C254.26,243.56,251.95,244.27,249.9,244.83z"/>
	<path class="st13" d="M134.43,219.02c0.72,0.09,1.42,0.29,2.11,0.53c3.63,1.25,7.15,1.84,10.35,3.97
		c4.55,3.04,3.69,8.33-1.13,11.04c-5.28,2.96-16.4,2.08-21.19-1.69c-4.61-3.62-3.8-10.03,1.71-12.09
		C128.75,219.85,134.3,219,134.43,219.02z"/>
	<path class="st13" d="M274.43,206.24c2.96-0.89,6.7-2,10.4-3.11c3.49,7.62,0.95,19.65-4.75,24.77
		C278.3,221.03,276.44,213.91,274.43,206.24z"/>
	<path class="st13" d="M255.11,211.58c0.07,3.13-2.28,5.69-5.37,5.85c-3.27,0.16-6.15-2.58-6.2-5.91c-0.05-3.07,2.4-5.76,5.37-5.92
		C252.04,205.44,255.03,208.33,255.11,211.58z"/>
	<path class="st13" d="M235.82,215.29c-0.02,3.25-2.37,5.76-5.46,5.83c-3.23,0.07-6.03-2.88-5.94-6.26c0.09-3.13,2.68-5.69,5.68-5.6
		C233.36,209.36,235.84,211.98,235.82,215.29z"/>
	<path class="st13" d="M135.05,215.22c-3-0.07-5.73-2.62-5.64-5.27c0.09-2.76,2.82-5.13,5.81-5.06c3.11,0.08,5.66,2.45,5.62,5.24
		C140.8,212.87,138.04,215.29,135.05,215.22z"/>
	<path class="st13" d="M269.44,220.13c-0.04,2.76-2.23,4.91-4.96,4.87c-2.88-0.04-5.06-2.28-5.09-5.22
		c-0.03-2.9,2.33-5.29,5.09-5.16C267.15,214.75,269.49,217.35,269.44,220.13z"/>
	<path class="st4" d="M182.69,150.58c-0.38-2.35-0.71-4.36-1.16-7.15c1.27,1.14,2,1.79,2.84,2.55c0.35-0.26,0.76-0.49,1.09-0.81
		c9.78-9.56,19.44-19.25,29.38-28.64c5.64-5.33,12.61-7.2,20.97-6.23c-5.59,7.21-10.86,13.82-18.45,18.4
		c-10.95,6.62-21.63,13.7-32.42,20.58C184.33,149.66,183.7,150,182.69,150.58z"/>
	<path class="st4" d="M140.25,147.12c4.08-3.86,8.24-4.97,13.16-3.12c3.67,1.38,7.39,2.68,11.16,3.75c2.18,0.62,4.5,0.71,7.31,1.12
		c0,0.21,0,1.33,0,3.01c-7.24,0.41-14.58,1.49-21.81,0.95C146.75,152.58,143.64,149.2,140.25,147.12z"/>
	<path class="st4" d="M183.37,154.41c-1.97,3.2-3.55,5.75-5.33,8.63c-2.16-2.31-3.97-4.24-6.27-6.69
		C175.83,155.67,179.22,155.1,183.37,154.41z"/>
	<path class="st13" d="M198.2,232.79c-0.82-1.21-1.65-2.41-2.47-3.62c0.82-0.51,1.63-1.02,2.45-1.53c0.66,1.37,1.31,2.74,1.97,4.1
		C199.5,232.09,198.85,232.44,198.2,232.79z"/>
	<ellipse class="st13" cx="121.46" cy="212.64" rx="5.04" ry="4.05"/>
	<circle class="st13" cx="112.94" cy="216.69" r="1.41"/>
	<g>
		<path class="st13" d="M259.56,176.09c-6.19,2.61-11.19,7.93-13.41,14.28"/>
	</g>
	<path class="st13" d="M268.43,179.09c-2.67,2.1-5.55,3.99-7.86,6.49c-2.3,2.5-4.02,5.8-3.71,9.19c0.07,0.82,0.27,1.63,0.62,2.36
		c0.64,1.32,1.8,2.34,3.09,3.04c1.09,0.59,2.34,0.98,3.56,0.77c1.29-0.22,2.39-1.07,3.26-2.05c3.23-3.62,3.8-8.79,5.35-13.39
		c1.29-3.83,3.32-7.38,4.85-11.12c0.28-0.69,0.55-1.44,0.41-2.18c-0.07-0.33-0.3-0.7-0.64-0.67c-0.1,0.01-0.2,0.06-0.29,0.12
		c-0.8,0.51-1.16,1.47-1.48,2.36c-2.42,6.87-5.09,13.65-8.03,20.32c-0.45,1.02-0.91,2.05-1.68,2.85c-0.99,1.04-2.49,1.61-3.91,1.4
		c-1.42-0.2-2.73-1.21-3.21-2.56c-0.39-1.08-0.27-2.28-0.05-3.41c0.24-1.25,0.57-2.5,1.12-3.65c1.26-2.68,3.54-4.75,5.93-6.5
		c2.4-1.75,4.97-3.26,7.19-5.23c1.24-1.1,2.38-2.38,3.08-3.89c0.56-1.2,0.85-3.64-0.59-1.48
		C273.55,174.69,271.06,177.02,268.43,179.09z"/>
	<path class="st37" d="M286.08,178.12c0,0-2.17,3.64-12.33-2.41c-10.54-6.28-7.99-9.69-7.99-9.69l26.67-44.79l20.32,12.1
		L286.08,178.12z"/>
	<path class="st38" d="M312.69,133.42c-0.75,1.26-5.91-0.43-11.52-3.77c-5.61-3.34-9.55-7.07-8.8-8.33
		c0.75-1.26,5.91,0.43,11.52,3.77C309.51,128.42,313.45,132.15,312.69,133.42z"/>
	<polygon class="st34" points="274.63,162.4 277.45,162.55 275.62,164.7 276.35,167.43 273.74,166.35 271.36,167.89 271.59,165.07 
		269.39,163.29 272.14,162.63 273.15,159.99 	"/>
	<polygon class="st34" points="306.8,143.32 309.64,138.54 309.03,138.51 307.55,136.1 306.54,138.74 303.79,139.4 305.98,141.18 
		305.76,143.99 	"/>
	<polygon class="st34" points="290.09,125.16 287.78,129.04 290.38,130.12 289.65,127.39 291.48,125.24 	"/>
	<path class="st34" d="M286.07,178.13l1.06-1.77l-1.52-0.08l-1.48-2.41l-1.01,2.64l-2.75,0.66l2.2,1.78l-0.02,0.24
		C285.3,179.42,286.07,178.13,286.07,178.13z"/>
	<path class="st39" d="M290.63,128.66c-3.32,2.96-3.75,7.93-5.74,11.91c-2.08,4.16-5.92,7.3-7.72,11.59
		c-0.29,0.7-0.52,1.54-0.11,2.18c0.44,0.7,1.47,0.81,2.22,0.45c0.75-0.35,1.27-1.05,1.74-1.72c3.09-4.44,5.41-9.39,8.63-13.73
		c1.2-1.61,2.53-3.15,3.48-4.91c0.74-1.37,1.73-3.76,1.15-5.36C293.66,127.37,291.79,127.63,290.63,128.66z"/>
	<path class="st39" d="M275.9,157.33c-0.42-0.49-1.13-0.73-1.76-0.6c-0.64,0.13-1.19,0.63-1.38,1.25c-0.11,0.36-0.11,0.75-0.06,1.12
		c0.09,0.67,0.37,1.33,0.88,1.77c0.91,0.79,2.5,0.57,3.16-0.44c0.66-1.01,0.24-2.55-0.85-3.08L275.9,157.33z"/>
	<g>
		<path class="st34" d="M283.15,155.46l-0.83,0.94l1.32-0.73c0.05,0.1,0.01,0.23-0.12,0.34c0.18,0.45,0.35,0.93,0.49,1.43l0.41-0.31
			c0.08,0.1,0.08,0.23-0.05,0.4l3.71,3.29l-1.06,1.19l-2.55-2.26c0.04,0.42,0.07,0.83,0.07,1.22c-0.41-0.01-1.2,0.05-1.62,0.14
			c0.1-1.35-0.29-3.14-0.94-4.51l0.03-0.02l-0.44-0.39l-1.56,1.76l-1.16-1.03l1.56-1.76l-0.78-0.69l1.36-1.38
			c0.08,0.09,0.08,0.22-0.04,0.41l0.52,0.47l1.38-1.56l-0.78-0.69l1.37-1.39c0.09,0.1,0.08,0.21-0.04,0.41l0.52,0.47l1.54-1.74
			l1.16,1.03l-1.54,1.74l0.53,0.47l-1.07,1.21l-0.53-0.47l-1.38,1.56L283.15,155.46z M288.71,156.84c0.38,0.34,0.46,0.33,0.76,0
			l0.76-0.86c0.28-0.32,0.14-0.54-0.82-1.49c0.43-0.08,1.08-0.41,1.44-0.67c1.29,1.38,1.44,2.08,0.6,3.03l-1.01,1.14
			c-0.99,1.12-1.61,1.09-2.79,0.04l-3.66-3.25l1.36-1.38c0.08,0.09,0.08,0.22-0.04,0.41l1.3,1.15c0.23-0.85,0.38-1.73,0.43-2.43
			l1.81-0.11c0.01,0.07-0.05,0.19-0.16,0.28c-0.18,0.94-0.55,2.15-0.96,3.25L288.71,156.84z"/>
		<path class="st34" d="M288.82,144.32l0.89-0.91c0.1,0.12,0.1,0.31,0,0.5l2.26,2c1.44,1.28,3.96,1.91,7.04,0.29
			c0.02,0.52,0.2,1.37,0.39,1.86c-2.32,1.09-4.84,0.85-5.92,0.37c0.65,1.03,1.24,3.36,0.46,5.79c-0.42-0.09-1.32-0.12-1.8-0.07
			c1.19-3.15,0.08-5.67-1.33-6.92l-2.61-2.31L288.82,144.32z M289.32,151.38c-0.01-1.03-0.56-2-1.42-2.96l1.36-1
			c0.95,1.09,1.73,2.19,1.73,3.44L289.32,151.38z M293.7,146.47c-0.27-0.94-0.8-2.2-1.34-3.1l1.94-0.9
			c0.03,0.12-0.03,0.25-0.16,0.38c0.4,0.87,0.78,2.15,0.99,3.03L293.7,146.47z"/>
	</g>
</g>
<g>
	<polygon class="st24" points="298.91,357.16 75.79,357.16 83.67,313.64 313.24,313.64 	"/>
	<g>
		<g>
			<path class="st13" d="M138.12,322.52c-0.07,0.93-0.15,2.34-0.27,4.23l-0.8-0.03c-0.53,0-1.17-0.01-1.9-0.03
				c-0.87,0-1.71-0.01-2.53-0.03c-0.84-0.02-1.33-0.03-1.46-0.03c-0.02,1.78-0.06,4.44-0.1,7.99c0.04,0,0.28,0,0.7,0
				c0.42-0.02,0.91-0.03,1.46-0.03c0.64,0,1.26,0,1.86,0l0.9-0.03c0,0.95,0,2.36,0,4.23l-0.9,0.03c-0.6,0-1.23,0.01-1.9,0.03
				c-0.55,0-1.04,0-1.46,0c-0.45,0.02-0.68,0.03-0.7,0.03c0,2.33-0.01,5.85-0.03,10.55c-0.93,0-2.34,0.01-4.23,0.03v-1.86
				c-0.02-1.22-0.04-2.59-0.07-4.09c-0.02-1-0.03-1.98-0.03-2.93c-0.02-0.95-0.03-1.74-0.03-2.36c0-0.29,0-0.58,0-0.87
				c0-0.87,0.01-1.76,0.03-2.7c0.02-1.29,0.04-2.55,0.07-3.79c0.04-2.31,0.1-4.35,0.17-6.13l0.1-2.63c1.87,0.07,3.72,0.14,5.56,0.23
				C134.41,322.39,136.26,322.46,138.12,322.52z"/>
			<path class="st13" d="M142.12,321.49c0.02,0,0.04,0,0.07,0c0.36,0,0.7,0.07,1.03,0.2c0.33,0.13,0.63,0.32,0.9,0.57
				c0.27,0.27,0.48,0.57,0.63,0.9c0.16,0.36,0.23,0.73,0.23,1.13c0.02,0.4-0.04,0.77-0.2,1.1c-0.15,0.36-0.37,0.67-0.63,0.93
				c-0.27,0.24-0.57,0.44-0.9,0.6c-0.36,0.13-0.73,0.21-1.13,0.23c-0.4,0-0.77-0.08-1.1-0.23c-0.36-0.15-0.67-0.35-0.93-0.6
				c-0.24-0.27-0.44-0.58-0.6-0.93c-0.15-0.33-0.23-0.69-0.23-1.07v-0.03c0-0.4,0.08-0.78,0.23-1.13c0.16-0.33,0.37-0.63,0.63-0.9
				c0.27-0.24,0.57-0.43,0.9-0.57C141.37,321.56,141.74,321.49,142.12,321.49z M140.02,330.88c0-0.47,0-1.18,0-2.13
				c0.93,0,2.34,0.01,4.23,0.03c0,0.47,0,1.17,0,2.1c0.02,1.78,0.04,3.31,0.07,4.59c0.02,1.27,0.02,2.48,0,3.63
				c0,1.18-0.02,2.4-0.07,3.66c-0.02,1.26-0.06,2.79-0.1,4.56c0,0.47,0,1.17,0,2.1c-0.93,0-2.34,0-4.23,0c0-0.47,0-1.17,0-2.1
				c-0.02-1.8-0.04-3.33-0.07-4.59c-0.02-1.27-0.03-2.49-0.03-3.66c0.02-1.15,0.05-2.36,0.1-3.63
				C139.94,334.18,139.98,332.66,140.02,330.88z"/>
			<path class="st13" d="M146.28,347.36c0-1.95-0.01-3.88-0.03-5.79c-0.02-1.18-0.03-2.36-0.03-3.56c0-0.71,0-1.43,0-2.16
				c0-0.75,0.01-1.72,0.03-2.9c0.02-1.18,0.03-2.38,0.03-3.63c0.02-1.86,0.04-3.56,0.07-5.09l0.03-2.3l1.83,0.07
				c1.2,0.02,2.5,0.04,3.89,0.07c0.95,0.04,1.85,0.08,2.7,0.1c0.84,0.02,1.5,0.04,1.96,0.07c0.69,0.02,1.22,0.12,1.6,0.3
				c0.38,0.16,0.58,0.25,0.6,0.27c0.4,0.33,0.71,0.79,0.93,1.37c0.22,0.55,0.3,1.24,0.23,2.06c-0.09,0.87-0.38,1.92-0.87,3.16
				c-0.49,1.24-1.09,2.47-1.8,3.7c-0.33,0.6-0.69,1.17-1.06,1.7c-0.38,0.56-0.76,1.08-1.13,1.57c0.42,1.11,0.89,2.25,1.4,3.43
				c0.51,1.15,1.01,2.25,1.5,3.3c0.11,0.22,0.3,0.63,0.57,1.23c0.27,0.6,0.55,1.23,0.87,1.9c0.36,0.8,0.69,1.54,1,2.23l0.47,1.03
				c-1.04,0-2.61,0-4.69,0c-0.09-0.22-0.22-0.5-0.4-0.83c-0.18-0.35-0.37-0.73-0.57-1.13c-0.4-0.78-0.81-1.6-1.23-2.46
				c-0.42-0.89-0.76-1.6-1-2.13c-0.24-0.58-0.48-1.17-0.7-1.76c-0.22-0.58-0.45-1.17-0.67-1.76c-0.2,0.09-0.4,0.16-0.6,0.2
				c-0.18,0.04-0.37,0.08-0.57,0.1c-0.02,1.27-0.04,2.54-0.07,3.83s-0.04,2.57-0.07,3.86c0,0.47,0,1.17,0,2.1c-0.93,0-2.34,0-4.23,0
				c0-0.36,0-0.71,0-1.07C146.28,348.06,146.28,347.71,146.28,347.36z M150.71,335.01c0.78-0.73,1.58-1.79,2.4-3.16
				c0.82-1.4,1.49-2.74,2-4.03c0.07-0.18,0.15-0.38,0.27-0.6c0.09-0.22,0.18-0.43,0.27-0.63c-0.71-0.04-1.53-0.1-2.46-0.17
				c-0.91-0.04-1.75-0.09-2.53-0.13c0.02,1.46,0.04,2.92,0.07,4.36C150.71,332.11,150.71,333.57,150.71,335.01z"/>
			<path class="st13" d="M168.12,345.16c0.31,0.13,1.08,0.09,2.3-0.13c1.22-0.22,2.37-0.49,3.46-0.8c0,0.91,0.02,2.29,0.07,4.13
				l-1.13,0.37c-0.76,0.24-1.64,0.44-2.66,0.6c-0.53,0.07-1.06,0.1-1.6,0.1c-0.31,0-0.62-0.01-0.93-0.03
				c-0.84-0.07-1.59-0.31-2.23-0.73c-0.87-0.6-1.49-1.3-1.87-2.1c-0.4-0.8-0.65-1.7-0.77-2.7c-0.09-0.98-0.14-1.95-0.17-2.93
				c-0.02-0.64-0.03-1.29-0.03-1.93c0-0.36,0-0.71,0-1.07c0.02-1.38,0.09-3.1,0.2-5.16c0.09-2.06,0.19-3.92,0.3-5.56
				c0.15-2.11,0.25-3.48,0.3-4.13s0.11-0.98,0.2-1c0.18,0,0.42,0,0.73,0s0.67,0.01,1.07,0.03c0.75,0,1.6,0,2.53,0
				c0.91,0,1.73,0,2.46,0c0.93,0.02,1.74,0.16,2.43,0.4c0.69,0.27,1.24,0.84,1.66,1.73c0.27,0.69,0.51,1.82,0.73,3.4
				c0.07,0.53,0.1,1.09,0.1,1.67c0,1.07-0.13,2.15-0.4,3.26c-0.38,1.58-1.15,3.21-2.33,4.89c-1.15,1.69-2.97,3.24-5.46,4.66
				c0.02,0.22,0.09,0.73,0.2,1.53S167.67,344.96,168.12,345.16z M167.05,336.97c0.51-0.42,0.96-0.87,1.33-1.33
				c0.4-0.44,0.73-0.9,1-1.37c0.91-1.42,1.38-2.87,1.4-4.36c0.04-1.51-0.04-2.66-0.27-3.46c-0.36,0-0.92,0-1.7,0
				c-0.78,0.02-1.24,0.03-1.4,0.03c-0.04,1.84-0.11,3.7-0.2,5.56C167.13,333.89,167.07,335.53,167.05,336.97z"/>
			<path class="st13" d="M176.84,322.36c0.93,0,2.32,0,4.16,0c-0.02,0.55-0.06,1.37-0.1,2.43c-0.11,1.62-0.13,3.35-0.07,5.19
				c0.07,1.86,0.2,3.76,0.4,5.69c0.15,1.6,0.36,3.21,0.6,4.83c0.24,1.6,0.53,3.16,0.87,4.69c0.11-0.02,0.22-0.03,0.33-0.03
				s0.23,0,0.37,0c0.07,0,0.13,0.01,0.2,0.03c0.07,0,0.14,0.01,0.23,0.03c0.33-1.51,0.62-3.06,0.87-4.66c0.22-1.6,0.42-3.2,0.6-4.79
				c0.2-2.09,0.33-4.27,0.4-6.56c0.09-2.29,0.13-4.57,0.13-6.86c0.27,0,0.57,0,0.9,0c0.33,0,0.67,0,1,0c0.64,0,1.22,0,1.73,0
				c0.51,0,0.78,0.01,0.8,0.03c-0.04,2.33-0.05,4.56-0.03,6.69c0.02,2.15,0.15,4.37,0.4,6.66c0.15,1.6,0.35,3.21,0.6,4.83
				c0.24,1.6,0.53,3.16,0.87,4.69c0.11-0.02,0.22-0.03,0.33-0.03s0.23,0.01,0.37,0.03c0.07,0,0.13,0,0.2,0s0.14,0.01,0.23,0.03
				c0.33-1.51,0.62-3.06,0.87-4.66s0.44-3.2,0.6-4.79c0.2-1.95,0.33-3.86,0.4-5.73c0.07-1.86,0.05-3.62-0.04-5.26
				c-0.04-0.53-0.11-1.34-0.2-2.43c0.93,0,2.32,0,4.16,0c0.02,0.49,0.07,1.2,0.13,2.13c0.15,1.62,0.23,3.36,0.23,5.23
				c0,0.13,0,0.25,0,0.37c-0.02,2.02-0.13,4.07-0.33,6.16c-0.2,1.95-0.49,3.91-0.87,5.86c-0.38,1.98-0.82,3.86-1.33,5.66
				c-0.09,0.36-0.23,0.9-0.43,1.63c-1.66,0-4.17,0-7.52,0c-0.04-0.22-0.1-0.52-0.17-0.9c-0.07-0.35-0.14-0.73-0.23-1.13
				c-0.11-0.6-0.21-1.18-0.3-1.73c-0.11-0.55-0.19-0.92-0.23-1.1c-0.07,0.27-0.13,0.57-0.2,0.9c-0.07,0.36-0.13,0.71-0.2,1.07
				c-0.11,0.64-0.22,1.24-0.33,1.8c-0.09,0.55-0.16,0.9-0.2,1.03c-1.66,0-4.17,0-7.52,0c-0.11-0.42-0.28-1.04-0.5-1.86
				c-0.49-1.8-0.92-3.66-1.3-5.59c-0.36-1.93-0.63-3.87-0.83-5.83c-0.15-1.73-0.23-3.62-0.23-5.66c0-0.31,0-0.62,0-0.93
				C176.66,327.12,176.73,324.73,176.84,322.36z"/>
			<path class="st13" d="M201.94,323.89c0.11-0.18,0.27-0.37,0.46-0.57c0.18-0.22,0.43-0.41,0.77-0.57c0.2-0.09,0.47-0.18,0.8-0.27
				c0.33-0.09,0.7-0.17,1.1-0.23c0.42-0.07,0.89-0.11,1.4-0.13c0.49-0.04,1-0.08,1.53-0.1c0.95-0.04,1.84-0.07,2.66-0.07
				c0.82,0,1.34,0,1.56,0c0.29,0.02,0.57,0.1,0.83,0.23c0.27,0.13,0.5,0.32,0.7,0.57c0.07,0.09,0.19,0.37,0.37,0.83
				c0.15,0.47,0.28,1.08,0.37,1.83c0.07,0.53,0.13,1.17,0.2,1.9c0.07,0.71,0.12,1.49,0.17,2.33c0.09,1.53,0.15,3.21,0.2,5.03
				c0.02,0.82,0.03,1.63,0.03,2.43c0,0.95-0.01,1.9-0.03,2.83c-0.04,1.6-0.17,3.03-0.37,4.29c-0.18,1.24-0.4,2.16-0.67,2.76
				c-0.2,0.42-0.43,0.75-0.7,1c-0.24,0.24-0.5,0.43-0.77,0.57c-0.38,0.2-0.77,0.37-1.17,0.5c-0.4,0.11-0.8,0.2-1.2,0.27
				c-0.38,0.07-0.77,0.11-1.17,0.13c-0.18,0.02-0.36,0.03-0.53,0.03c-0.2,0-0.41-0.01-0.63-0.03c-0.29-0.02-0.83-0.11-1.63-0.27
				c-0.78-0.16-1.55-0.53-2.33-1.13c-0.51-0.38-0.98-0.87-1.4-1.46s-0.74-1.34-0.96-2.23c-0.22-0.98-0.38-2.33-0.47-4.06
				c-0.07-1.33-0.1-2.74-0.1-4.23c0-0.49,0-0.99,0-1.5c0.02-1.84,0.09-3.58,0.2-5.23c0.09-1.67,0.2-2.93,0.33-3.79
				c0.02-0.18,0.04-0.34,0.07-0.5c0.04-0.18,0.09-0.33,0.13-0.47c-0.02,0-0.03-0.01-0.03-0.03h0.03c0.04-0.16,0.09-0.29,0.13-0.4
				C201.88,324.04,201.92,323.96,201.94,323.89z M205.4,336.81c0,1.49,0.04,2.76,0.13,3.83c0.07,1.09,0.19,1.99,0.37,2.7
				c0.07,0.27,0.15,0.5,0.27,0.7c0.13,0.2,0.28,0.36,0.43,0.47c0.29,0.22,0.59,0.36,0.9,0.4c0.31,0.07,0.52,0.1,0.63,0.1
				c0.22,0.02,0.44,0.02,0.67,0c0.22,0,0.44-0.02,0.67-0.07c0.33-0.07,0.56-0.31,0.7-0.73c0.11-0.42,0.18-0.69,0.2-0.8
				c0.18-1.26,0.29-2.73,0.33-4.39c0.04-1.64,0.06-3.37,0.03-5.19c-0.71-0.07-1.36-0.21-1.96-0.43c-0.62-0.24-1.2-0.55-1.73-0.93
				c-0.29-0.2-0.56-0.42-0.83-0.67c-0.24-0.24-0.49-0.5-0.73-0.77c-0.02,0.87-0.04,1.82-0.07,2.86
				C205.4,334.9,205.4,335.87,205.4,336.81z M210.33,326.35c0-0.04-0.01-0.1-0.03-0.17c-0.42,0-0.88,0.01-1.37,0.03
				c-0.51,0.02-1.01,0.06-1.5,0.1c0.24,0.38,0.5,0.73,0.77,1.07c0.27,0.33,0.55,0.64,0.87,0.93c0.22,0.22,0.46,0.42,0.7,0.6
				s0.5,0.32,0.77,0.43c-0.02-0.58-0.05-1.12-0.1-1.63C210.41,327.21,210.37,326.75,210.33,326.35z"/>
			<path class="st13" d="M216.55,347.36c0-1.95-0.01-3.88-0.03-5.79c-0.02-1.18-0.03-2.36-0.03-3.56c0-0.71,0-1.43,0-2.16
				c0-0.75,0.01-1.72,0.03-2.9c0.02-1.18,0.03-2.38,0.03-3.63c0.02-1.86,0.04-3.56,0.07-5.09l0.03-2.3l1.83,0.07
				c1.2,0.02,2.5,0.04,3.89,0.07c0.95,0.04,1.85,0.08,2.7,0.1c0.84,0.02,1.5,0.04,1.96,0.07c0.69,0.02,1.22,0.12,1.6,0.3
				c0.38,0.16,0.58,0.25,0.6,0.27c0.4,0.33,0.71,0.79,0.93,1.37c0.22,0.55,0.3,1.24,0.23,2.06c-0.09,0.87-0.38,1.92-0.87,3.16
				c-0.49,1.24-1.09,2.47-1.8,3.7c-0.33,0.6-0.69,1.17-1.06,1.7c-0.38,0.56-0.76,1.08-1.13,1.57c0.42,1.11,0.89,2.25,1.4,3.43
				c0.51,1.15,1.01,2.25,1.5,3.3c0.11,0.22,0.3,0.63,0.57,1.23c0.27,0.6,0.55,1.23,0.87,1.9c0.36,0.8,0.69,1.54,1,2.23l0.47,1.03
				c-1.04,0-2.61,0-4.69,0c-0.09-0.22-0.22-0.5-0.4-0.83c-0.18-0.35-0.37-0.73-0.57-1.13c-0.4-0.78-0.81-1.6-1.23-2.46
				c-0.42-0.89-0.76-1.6-1-2.13c-0.24-0.58-0.48-1.17-0.7-1.76c-0.22-0.58-0.45-1.17-0.67-1.76c-0.2,0.09-0.4,0.16-0.6,0.2
				c-0.18,0.04-0.37,0.08-0.57,0.1c-0.02,1.27-0.04,2.54-0.07,3.83s-0.04,2.57-0.07,3.86c0,0.47,0,1.17,0,2.1c-0.93,0-2.34,0-4.23,0
				c0-0.36,0-0.71,0-1.07C216.55,348.06,216.55,347.71,216.55,347.36z M220.98,335.01c0.78-0.73,1.58-1.79,2.4-3.16
				c0.82-1.4,1.49-2.74,2-4.03c0.07-0.18,0.15-0.38,0.27-0.6c0.09-0.22,0.18-0.43,0.27-0.63c-0.71-0.04-1.53-0.1-2.46-0.17
				c-0.91-0.04-1.75-0.09-2.53-0.13c0.02,1.46,0.04,2.92,0.07,4.36C220.98,332.11,220.98,333.57,220.98,335.01z"/>
			<path class="st13" d="M232.8,347.36c-0.02-1.95-0.04-3.91-0.07-5.86c0-1.2,0-2.4,0-3.59c0-0.75,0-1.5,0-2.23
				c0.02-1.93,0.05-3.87,0.1-5.83c0.02-1.93,0.04-3.86,0.07-5.79c0-0.49,0-1.2,0-2.13c0.96,0,2.36,0,4.23,0c0,0.47,0,1.18,0,2.13
				c0.02,1.73,0.04,3.46,0.07,5.19c0.02,1.73,0.03,3.46,0.03,5.19c0.15-0.29,0.31-0.58,0.47-0.87c0.15-0.29,0.32-0.58,0.5-0.87
				c0.82-1.49,1.61-2.99,2.36-4.49c0.76-1.49,1.32-3.04,1.7-4.66c0.07-0.35,0.19-0.91,0.37-1.66c0.96,0,2.4,0,4.33,0
				c-0.13,0.58-0.32,1.45-0.57,2.63c-0.44,2-1.12,3.94-2.03,5.83c-0.91,1.91-1.87,3.78-2.86,5.63c0.02,0.11,0.08,0.27,0.17,0.47
				c0.44,1.18,0.92,2.36,1.43,3.56c0.53,1.22,1.05,2.36,1.56,3.43c0.24,0.51,0.49,1,0.73,1.46c0.22,0.47,0.46,0.9,0.7,1.3
				c0.38,0.71,0.96,1.8,1.76,3.26c-1.04,0-2.61,0-4.69,0c-0.13-0.22-0.33-0.53-0.6-0.93c-0.49-0.69-0.98-1.48-1.46-2.36
				c-0.49-0.91-0.96-1.88-1.4-2.9c-0.15-0.35-0.31-0.71-0.46-1.07c-0.16-0.38-0.3-0.74-0.43-1.1c-0.16,0.33-0.3,0.67-0.43,1
				c-0.13,0.33-0.26,0.67-0.37,1c-0.24,0.71-0.44,1.41-0.6,2.1c-0.15,0.71-0.24,1.43-0.27,2.16c0,0.47,0,1.17,0,2.1
				c-0.96,0-2.4,0-4.33,0c0-0.36,0-0.71,0-1.07C232.8,348.04,232.8,347.69,232.8,347.36z"/>
			<path class="st13" d="M259.53,322.19c0.47,0.09,1.15,0.21,2.06,0.37c-0.16,0.93-0.39,2.32-0.7,4.16
				c-0.47-0.07-1.17-0.19-2.1-0.37c-0.62-0.09-1.22-0.13-1.8-0.13c-0.58,0-1.11,0.08-1.6,0.23c-0.38,0.13-0.7,0.33-0.96,0.6
				c-0.27,0.27-0.47,0.61-0.6,1.03c-0.11,0.38-0.19,0.9-0.23,1.57c-0.04,0.64-0.04,1.33,0,2.06c0.02,0.64,0.08,1.3,0.17,1.96
				c0.07,0.64,0.19,1.23,0.37,1.76c0.07,0.24,0.17,0.44,0.3,0.6c0.11,0.16,0.26,0.27,0.43,0.33c0.35,0.18,0.73,0.29,1.13,0.33
				c0.4,0.02,0.77,0.04,1.1,0.07c1.35,0.13,2.45,0.61,3.29,1.43c0.87,0.84,1.44,1.83,1.73,2.96c0.18,0.62,0.27,1.23,0.27,1.83
				c0,0.53-0.07,1.08-0.2,1.63c-0.27,1.15-0.78,2.11-1.53,2.86c-0.35,0.36-0.8,0.68-1.33,0.97c-0.51,0.27-1.12,0.49-1.83,0.67
				c-1,0.18-2.02,0.27-3.06,0.27c-0.4,0-0.8-0.02-1.2-0.07c-1.49-0.09-2.54-0.21-3.16-0.37c0.02-0.93,0.03-2.34,0.03-4.23
				c0.49,0.13,1.12,0.26,1.9,0.37c0.75,0.11,1.56,0.16,2.43,0.13c0.51-0.02,1.1-0.09,1.76-0.2c0.67-0.13,1.13-0.33,1.4-0.6
				c0.24-0.24,0.38-0.57,0.4-0.96c0.04-0.38,0.01-0.74-0.1-1.1c-0.09-0.29-0.22-0.54-0.4-0.77c-0.2-0.22-0.46-0.36-0.8-0.4
				c-0.67-0.04-1.43-0.14-2.3-0.3c-0.84-0.16-1.63-0.49-2.36-1c-0.45-0.33-0.87-0.75-1.27-1.26c-0.38-0.51-0.69-1.14-0.93-1.9
				c-0.2-0.69-0.36-1.45-0.47-2.3c-0.11-0.87-0.18-1.73-0.2-2.6c0-0.24,0-0.49,0-0.73c0-0.75,0.03-1.48,0.1-2.16
				c0.09-0.91,0.21-1.63,0.37-2.16c0.31-0.95,0.75-1.75,1.33-2.4c0.55-0.64,1.21-1.17,1.96-1.56c0.89-0.44,1.9-0.72,3.03-0.83
				c0.36-0.02,0.7-0.03,1.03-0.03C257.82,321.96,258.67,322.04,259.53,322.19z"/>
		</g>
	</g>
	<g class="st32">
		<path class="st13" d="M96.73,346.76l-0.41,2.32l1.38-2.47c0.17,0.11,0.23,0.36,0.14,0.66c0.73,0.55,1.47,1.15,2.18,1.8l0.35-0.89
			c0.22,0.08,0.35,0.29,0.32,0.69l9.14,1.6l-0.51,2.94l-6.28-1.1c0.48,0.63,0.92,1.26,1.3,1.88c-0.66,0.39-1.87,1.26-2.46,1.81
			c-1.17-2.26-3.55-4.73-5.93-6.27l0.03-0.06l-1.09-0.19l-0.76,4.33l-2.86-0.5l0.76-4.33l-1.93-0.34l0.81-3.54
			c0.22,0.06,0.33,0.27,0.34,0.69l1.29,0.23l0.67-3.84l-1.93-0.34l0.81-3.56c0.24,0.06,0.34,0.25,0.34,0.69l1.29,0.23l0.75-4.29
			l2.85,0.5l-0.75,4.29l1.31,0.23l-0.52,2.98l-1.31-0.23l-0.67,3.84L96.73,346.76z M106.96,343.49c0.94,0.17,1.07,0.08,1.21-0.74
			l0.37-2.12c0.14-0.78-0.31-1.01-2.77-1.57c0.6-0.55,1.32-1.72,1.64-2.49c3.41,0.94,4.35,1.9,3.93,4.25l-0.49,2.81
			c-0.48,2.75-1.49,3.32-4.41,2.81l-9.04-1.58l0.81-3.54c0.22,0.06,0.33,0.27,0.34,0.7l3.2,0.56c-0.46-1.58-1.1-3.14-1.7-4.3
			l2.78-1.95c0.09,0.1,0.11,0.36,0.02,0.6c0.64,1.68,1.23,3.96,1.66,6.13L106.96,343.49z"/>
		<path class="st13" d="M94.84,323.41l0.53-2.32c0.28,0.09,0.46,0.4,0.49,0.81l5.57,0.98c3.55,0.62,8.19-0.85,11.52-6.45
			c0.54,0.81,1.66,1.99,2.45,2.59c-2.63,4.03-6.89,6.12-9.08,6.41c2.05,1.01,5.29,4.14,6.42,8.79c-0.75,0.27-2.23,1.11-2.94,1.67
			c-1.2-6.2-5.45-9.13-8.92-9.74l-6.43-1.13L94.84,323.41z M102.58,334.19c-1.02-1.64-2.86-2.64-5.18-3.32l1.19-2.92
			c2.59,0.81,4.91,1.79,6.13,3.78L102.58,334.19z M104.73,322.06c-1.35-1.23-3.44-2.72-5.18-3.64l2.21-3.34
			c0.16,0.16,0.2,0.44,0.12,0.76c1.5,1,3.36,2.66,4.55,3.87L104.73,322.06z"/>
	</g>
</g>
<g>
	<g>
		<path class="st13" d="M85.19,233.04l12.97,0l-0.03,75.19l-12.97,0l0.01-34.28H59.71c0.03,10.62,0.5,13,7.67,21.28l4.38,4.78
			l-9.65,8.5l-4.5-4.91c-9.71-11.22-10.8-16.72-10.86-29.64H35.77v-6.29c0-2.38,1.93-4.31,4.31-4.31h6.65l-0.03-30.28l12.97-0.01
			l0.03,30.3h25.48L85.19,233.04z"/>
		<path class="st13" d="M151.66,295.56h4.46v12.72h-49.09v-8.07h-0.02V279.1l31.67-3.3v-4.07c-2.14,0.15-4.25,0.22-6.3,0.22
			c-13.78,0-24.98-2.93-25.72-3.12l1.71-6.13l1.7-6.14c0.19,0.05,13.99,3.62,28.62,2.43v-4.96h12.97v2.4c0.67-0.23,1.34-0.47,2-0.74
			l4.93,11.76c-2.26,0.91-4.59,1.65-6.93,2.25V295.56z M138.69,295.56v-6.97L120,290.54v5.02H138.69z"/>
		<path class="st13" d="M219.08,308.44l-12.87,1.58L201.23,271c-4.18,0.49-8.22,0.71-12,0.71c-2.76,0-5.39-0.11-7.83-0.28l0.02,36.8
			l-12.97,0.01l-0.02-38.5c-3.06-0.59-4.95-1.11-5.23-1.18l1.79-6.11l1.78-6.12c0.03,0.01,0.62,0.17,1.65,0.4l0-2.71l12.97-0.01
			l0,4.63c8.94,0.71,20.89,0.49,32.69-3.36l4.1,12.07c-1.39,0.46-2.79,0.86-4.18,1.23L219.08,308.44z"/>
		<path class="st13" d="M270.36,295.56h4.46v12.72h-49.09v-8.07h-0.02V279.1l31.67-3.3v-4.07c-2.14,0.15-4.25,0.22-6.3,0.22
			c-13.78,0-24.98-2.93-25.72-3.12l1.71-6.13l1.7-6.14c0.19,0.05,13.99,3.62,28.62,2.43v-4.96h12.97v2.4c0.67-0.23,1.34-0.47,2-0.74
			l4.93,11.76c-2.26,0.91-4.59,1.65-6.93,2.25V295.56z M257.38,295.56v-6.97l-18.69,1.95v5.02H257.38z"/>
		<path class="st13" d="M329.54,268.76l2.82,39.52h-49.7v-12.72h5.64l0-22.66v-2.61c-4.03-0.7-6.63-1.37-6.97-1.46l1.71-6.14
			l1.7-6.14c0.06,0.01,1.37,0.35,3.57,0.78v-24.1h12.97v25.79c8.3,0.54,18.4,0.13,27.05-3.35l4.93,11.76
			C332.04,267.93,330.79,268.36,329.54,268.76z M301.28,295.56h17.17l-1.72-24.13c-3.3,0.37-6.55,0.52-9.68,0.52
			c-1.99,0-3.92-0.07-5.77-0.17v1.91L301.28,295.56L301.28,295.56z"/>
		<path class="st13" d="M340.29,253.1v-11.8h12.97v11.8H340.29z M340.29,308.15v-50.7h12.97v50.7H340.29z"/>
	</g>
</g>
</svg>
